<svg xmlns="http://www.w3.org/2000/svg" width="640" height="300" viewBox="0 0 640 300" role="img">
<defs>
<radialGradient id="g" cx="0.2" cy="0.5" r="0.6"><stop offset="0" stop-color="#2ad4a4" stop-opacity="0.16"/><stop offset="1" stop-color="#2ad4a4" stop-opacity="0"/></radialGradient>
<pattern id="dots" width="22" height="22" patternUnits="userSpaceOnUse"><circle cx="1" cy="1" r="1" fill="#0c0e12" fill-opacity="0.07"/></pattern>
<clipPath id="clip"><rect width="640" height="300" rx="18"/></clipPath>
<path id="d0" d="M300 -10Q230 -10 178 17Q127 44 99 93Q71 142 71 207V523Q71 589 99 638Q127 686 178 713Q230 740 300 740Q371 740 422 713Q473 686 501 638Q529 589 529 523V207Q529 142 501 93Q473 44 422 17Q370 -10 300 -10ZM300 90Q354 90 386 122Q418 155 418 207V523Q418 575 386 608Q354 640 300 640Q246 640 214 608Q182 575 182 523V207Q182 155 214 122Q246 90 300 90ZM300 302Q271 302 254 320Q236 338 236 368Q236 397 254 414Q271 432 300 432Q329 432 346 414Q364 397 364 368Q364 338 346 320Q329 302 300 302Z"/><path id="d1" d="M162 0 425 622H181V516H65V730H542V619L287 0Z"/><path id="c2" d="M75 -110 430 830H525L170 -110Z"/><path id="c3" d="M300 -10Q233 -10 184 16Q134 43 107 92Q80 140 80 205V525Q80 591 107 639Q134 687 184 714Q233 740 300 740Q368 740 417 714Q466 687 493 639Q520 591 520 525V205Q520 140 493 92Q466 43 416 16Q367 -10 300 -10ZM300 67Q360 67 396 106Q433 144 433 205V525Q433 586 396 624Q360 663 300 663Q240 663 204 624Q167 586 167 525V205Q167 144 204 106Q240 67 300 67ZM300 306Q273 306 256 323Q240 340 240 368Q240 395 256 412Q273 428 300 428Q327 428 344 412Q360 395 360 368Q360 340 344 323Q327 306 300 306Z"/><path id="c4" d="M185 0 446 648H170V540H80V730H535V642L282 0Z"/><path id="c5" d="M300 260Q262 260 240 282Q217 304 217 341Q217 380 240 403Q262 426 300 426Q338 426 360 403Q383 380 383 341Q383 304 360 282Q338 260 300 260Z"/><path id="c6" d="M109 0 25 730H111L166 190Q168 168 170 144Q172 121 174 100Q175 79 175 65Q177 79 178 100Q180 121 182 144Q185 168 188 190L256 730H349L411 190Q414 168 416 144Q419 121 422 100Q424 79 425 65Q426 79 428 100Q429 121 432 144Q434 168 436 190L493 730H575L489 0H376L314 550Q312 573 310 595Q307 617 305 636Q303 655 302 667Q301 655 298 636Q296 617 294 595Q292 573 289 550L222 0Z"/><path id="c7" d="M300 -10Q234 -10 186 15Q139 40 114 88Q88 135 88 200V530Q88 596 114 643Q139 690 186 715Q234 740 300 740Q366 740 414 715Q461 690 486 643Q512 596 512 531V200Q512 135 486 88Q461 40 414 15Q366 -10 300 -10ZM300 71Q359 71 390 104Q422 138 422 200V530Q422 592 390 626Q359 659 300 659Q242 659 210 626Q178 592 178 530V200Q178 138 210 104Q242 71 300 71Z"/><path id="c8" d="M92 0V730H318Q383 730 432 704Q481 677 508 630Q535 583 535 520Q535 446 496 393Q458 340 392 320L545 0H439L299 310H182V0ZM182 391H318Q374 391 408 426Q442 462 442 520Q442 579 408 614Q374 649 318 649H182Z"/><path id="c9" d="M92 0V730H182V417H290L452 730H550L369 379L560 0H457L287 338H182V0Z"/><path id="c10" d="M95 0V731H525V649H183V406H499V324H185V0Z"/><path id="c11" d="M115 0V730H205V82H535V0Z"/><path id="c12" d="M50 0 240 730H361L550 0H459L411 194H190L142 0ZM208 270H392L336 495Q320 559 311 602Q302 645 300 658Q298 645 289 602Q280 559 264 496Z"/><path id="c13" d="M300 -10Q198 -10 144 46Q90 103 90 200V730H180V200Q180 140 210 105Q239 70 300 70Q360 70 390 105Q420 140 420 200V730H510V200Q510 102 456 46Q403 -10 300 -10Z"/><path id="c14" d="M255 0V649H55V731H545V649H345V0Z"/><path id="c15" d="M76 0V730H194L270 494Q281 462 290 430Q299 399 303 382Q308 399 316 430Q324 462 334 495L406 730H524V0H436V265Q436 309 439 365Q442 421 447 480Q452 538 458 592Q463 645 467 685L349 320H254L135 685Q140 646 145 594Q150 543 154 486Q158 428 161 371Q164 314 164 265V0Z"/><path id="c16" d="M105 0V82H254V648H105V730H495V648H346V82H495V0Z"/><path id="c17" d="M90 0V730H210L433 105Q431 130 428 166Q426 203 424 244Q423 284 423 320V730H510V0H390L168 625Q170 601 172 564Q174 528 176 488Q177 447 177 410V0Z"/><path id="g18" d="M317 -10Q284 -10 270 14Q256 39 269 95L392 621Q403 666 390 694Q376 723 338 723Q302 723 271 694Q240 665 223 591L207 523Q204 510 218 510H278Q297 510 293 496Q290 482 275 482H208Q198 482 195 472L88 11Q85 0 74 0H32Q19 0 22 13L123 445Q132 482 99 482H78Q62 482 62 496Q62 510 80 510Q111 510 126 518Q142 526 147 550Q160 607 186 652Q213 696 254 722Q295 748 350 748Q395 748 420 724Q428 716 437 723L451 733Q466 743 473 743Q485 743 482 728L334 94Q329 72 332 60Q336 47 351 47Q369 47 390 74Q412 100 439 174Q443 187 453 187Q468 187 461 169Q440 101 414 62Q389 22 364 6Q339 -10 317 -10Z"/><path id="g19" d="M154 -9Q92 -9 56 42Q20 94 20 182Q20 247 41 307Q62 367 96 414Q131 461 174 488Q216 516 259 516Q321 516 357 465Q393 414 393 325Q393 260 372 200Q351 140 316 93Q282 46 240 18Q197 -9 154 -9ZM152 15Q184 15 214 46Q245 77 270 128Q295 179 310 242Q325 304 325 367Q325 492 260 492Q229 492 198 462Q167 431 142 380Q118 329 103 266Q88 204 88 141Q88 15 152 15Z"/><path id="g20" d="M137 -9Q96 -9 74 23Q52 55 66 110L146 412Q159 459 130 459Q109 459 88 429Q68 399 44 331Q40 319 30 319Q25 319 22 324Q19 328 21 335Q79 516 166 516Q200 516 212 488Q224 460 211 411L127 92Q118 58 126 42Q134 26 150 26Q199 26 260 146Q320 267 366 499Q369 510 380 510H419Q433 510 430 497L350 92Q343 59 352 42Q360 26 379 26Q408 26 438 54Q468 82 492 127Q517 172 532 226Q547 280 547 332Q547 374 540 398Q534 423 527 440Q520 457 520 477Q520 516 554 516Q578 516 585 490Q592 463 592 410Q592 334 574 260Q555 185 524 124Q492 64 452 28Q411 -9 366 -9Q323 -9 300 24Q277 58 290 122Q292 129 288 130Q283 131 280 125Q252 69 217 30Q182 -9 137 -9Z"/><path id="g21" d="M-76 -205Q-89 -205 -89 -194Q-89 -184 -73 -182L-59 -180Q-39 -177 -30 -168Q-20 -160 -15 -138L118 436Q120 444 116 448Q111 453 103 448Q93 443 84 438Q75 432 66 426Q57 420 51 422Q45 425 45 432Q45 439 55 446Q83 465 113 479Q130 487 134 505L147 562Q152 583 173 583H191Q203 583 209 576Q215 569 212 556L205 527Q202 510 218 513Q241 516 262 516Q336 516 383 474Q430 432 430 345Q430 277 405 214Q380 150 339 100Q298 50 249 20Q200 -9 151 -9Q124 -9 100 2Q85 9 82 -6L52 -138Q47 -160 52 -167Q58 -174 77 -177L103 -181Q121 -184 121 -193Q121 -205 104 -205ZM110 115Q92 16 153 16Q188 16 224 46Q260 75 291 124Q322 174 341 236Q360 298 360 363Q360 430 331 460Q302 489 246 489Q196 489 189 455Z"/><path id="g22" d="M204 605Q185 605 172 618Q160 632 160 651Q160 678 176 694Q193 710 214 710Q234 710 248 698Q261 685 261 665Q261 637 244 621Q227 605 204 605ZM122 -10Q89 -10 75 14Q61 39 74 95L148 412Q153 434 150 446Q146 459 131 459Q113 459 92 432Q70 406 43 332Q39 319 29 319Q14 319 21 337Q43 406 68 445Q92 484 117 500Q142 516 163 516Q198 516 212 492Q226 467 213 411L139 94Q134 72 138 60Q141 47 156 47Q174 47 196 74Q217 100 244 174Q248 187 258 187Q273 187 266 169Q245 101 220 62Q194 22 169 6Q144 -10 122 -10Z"/><path id="g23" d="M74 -10Q41 -10 27 14Q13 39 26 95L153 640Q158 658 154 665Q149 672 135 673L105 676Q90 677 92 689Q94 698 106 700Q142 706 170 714Q198 723 215 737Q223 743 230 743Q242 743 239 728L91 94Q86 72 90 60Q93 47 108 47Q126 47 148 74Q169 100 196 174Q200 187 210 187Q225 187 218 169Q197 101 172 62Q146 22 121 6Q96 -10 74 -10Z"/><path id="g24" d="M102 -9Q68 -9 49 18Q30 45 43 105L126 467Q129 482 114 482H76Q62 482 62 495Q62 502 67 506Q72 510 79 510H115Q138 510 142 531L166 638Q169 649 180 649H221Q235 649 232 636L207 525Q204 510 219 510H276Q293 510 293 497Q293 482 272 482H218Q196 482 191 461L107 95Q102 73 108 60Q115 48 131 48Q154 48 174 74Q193 100 215 173Q219 186 228 186Q235 186 237 180Q239 174 234 158Q215 90 192 54Q170 18 147 4Q124 -9 102 -9Z"/><path id="a25" d="M657 -26Q496 -26 378 26Q259 78 192 172Q125 265 116 390H311Q319 306 368 252Q417 197 494 170Q570 144 657 144Q758 144 838 177Q919 210 966 270Q1013 330 1013 409Q1013 481 972 526Q932 571 865 600Q798 629 718 651L538 702Q358 753 258 848Q158 943 158 1091Q158 1217 226 1312Q294 1406 410 1458Q526 1510 670 1510Q817 1510 930 1458Q1043 1406 1108 1316Q1174 1227 1178 1114H992Q979 1223 888 1282Q797 1342 664 1342Q568 1342 496 1310Q423 1279 383 1224Q343 1170 343 1100Q343 1022 392 974Q440 927 506 900Q573 874 627 859L776 818Q836 802 908 774Q981 746 1047 700Q1113 653 1156 582Q1198 510 1198 406Q1198 284 1134 186Q1071 88 950 31Q829 -26 657 -26Z"/><path id="a26" d="M628 -24Q466 -24 348 48Q231 120 168 249Q104 378 104 550Q104 722 166 853Q228 984 342 1058Q455 1132 607 1132Q696 1132 782 1102Q869 1073 940 1008Q1010 942 1052 835Q1094 728 1094 573V498H226V650H997L913 594Q913 704 878 790Q844 875 776 924Q708 972 607 972Q506 972 434 922Q362 873 324 794Q286 714 286 623V522Q286 398 329 312Q372 225 450 180Q527 136 629 136Q695 136 749 155Q803 174 842 212Q881 251 902 308L1076 260Q1050 176 988 112Q926 48 834 12Q743 -24 628 -24Z"/><path id="a27" d="M338 1490V0H158V1490Z"/><path id="a28" d="M678 1118V964H20V1118ZM240 0V1267Q240 1364 286 1429Q331 1494 404 1527Q477 1560 558 1560Q622 1560 664 1550Q706 1539 726 1530L676 1376Q662 1381 640 1387Q617 1393 579 1393Q496 1393 458 1350Q420 1308 420 1227V0Z"/><path id="a29" d="M798 719V553H144V719Z"/><path id="a30" d="M338 670V0H158V1490H338V847H307Q358 1002 452 1067Q547 1132 674 1132Q787 1132 872 1086Q958 1039 1006 946Q1053 852 1053 710V0H872V695Q872 824 804 897Q737 970 620 970Q540 970 476 935Q412 900 375 833Q338 766 338 670Z"/><path id="a31" d="M613 -24Q461 -24 346 48Q232 120 168 250Q104 380 104 552Q104 727 168 858Q232 988 346 1060Q461 1132 613 1132Q766 1132 881 1060Q996 988 1060 858Q1124 727 1124 552Q1124 380 1060 250Q996 120 881 48Q766 -24 613 -24ZM613 137Q726 137 799 195Q872 253 907 348Q942 442 942 552Q942 663 907 758Q872 854 799 912Q726 971 613 971Q501 971 429 912Q357 854 322 759Q287 664 287 552Q287 442 322 348Q357 253 429 195Q501 137 613 137Z"/><path id="a32" d="M538 -24Q423 -24 334 10Q244 43 186 109Q128 175 108 271L279 312Q303 220 370 177Q436 134 536 134Q653 134 722 184Q792 234 792 303Q792 361 752 400Q711 438 628 457L442 501Q290 537 216 612Q142 688 142 806Q142 902 196 976Q250 1049 344 1090Q437 1132 556 1132Q671 1132 752 1098Q832 1063 882 1002Q933 942 958 863L795 821Q772 881 718 930Q665 979 557 979Q457 979 390 933Q324 887 324 817Q324 755 369 718Q414 680 512 657L681 617Q833 581 906 506Q979 430 979 315Q979 217 924 140Q868 64 768 20Q669 -24 538 -24Z"/><path id="a33" d="M598 1118V964H20V1118ZM188 1384H368V290Q368 215 398 180Q429 146 500 146Q517 146 544 150Q570 154 592 158L629 6Q601 -4 566 -9Q530 -14 495 -14Q350 -14 269 62Q188 139 188 276Z"/><path id="a34" d="M577 -24Q438 -24 331 47Q224 118 164 248Q104 378 104 556Q104 733 164 862Q225 992 332 1062Q439 1132 578 1132Q687 1132 751 1096Q815 1060 850 1014Q884 969 902 939H916V1490H1096V0H922V173H902Q884 142 848 96Q813 49 748 12Q684 -24 577 -24ZM604 137Q706 137 776 190Q846 244 882 339Q918 434 918 558Q918 682 882 774Q847 867 777 919Q707 971 604 971Q498 971 428 916Q357 861 322 768Q287 674 287 558Q287 441 322 346Q358 250 429 194Q500 137 604 137Z"/><path id="a35" d="M128 -359 216 208H422L266 -359Z"/><path id="a36" d="M613 -24Q461 -24 346 48Q232 120 168 250Q104 380 104 552Q104 727 168 858Q232 988 346 1060Q461 1132 613 1132Q694 1132 766 1111Q838 1090 898 1050Q957 1011 1000 954Q1043 896 1066 823L893 774Q881 817 856 853Q831 889 796 916Q760 942 714 956Q668 971 613 971Q501 971 429 912Q357 854 322 759Q287 664 287 552Q287 442 322 348Q357 253 429 195Q501 137 613 137Q669 137 716 152Q763 167 800 194Q836 222 861 260Q886 298 898 343L1070 294Q1048 219 1004 160Q961 102 901 60Q841 19 768 -2Q695 -24 613 -24Z"/><path id="a37" d="M158 0V1118H338V0ZM249 1301Q198 1301 161 1336Q124 1371 124 1420Q124 1470 161 1504Q198 1539 249 1539Q301 1539 338 1504Q375 1470 375 1420Q375 1371 338 1336Q301 1301 249 1301Z"/><path id="a38" d="M158 0V1118H332V946H344Q375 1031 454 1082Q534 1134 634 1134Q654 1134 682 1133Q709 1132 725 1131V950Q717 952 685 956Q653 960 617 960Q537 960 474 926Q410 893 374 834Q338 776 338 700V0Z"/><path id="a39" d="M409 0 70 1118H261L397 630Q425 530 457 404Q489 277 520 117H489Q519 270 550 397Q581 524 610 630L744 1118H936L1068 630Q1096 527 1126 400Q1157 274 1187 117H1155Q1187 272 1218 398Q1250 525 1279 630L1415 1118H1606L1267 0H1088L943 506Q921 583 900 663Q879 743 859 827Q839 911 818 998H858Q838 912 818 828Q797 743 776 662Q755 581 733 506L588 0Z"/><path id="a40" d="M327 402V625H360L838 1118H1061L544 587H524ZM158 0V1490H338V0ZM865 0 437 547 565 674 1096 0Z"/><path id="a41" d="M338 670V0H158V1118H331L332 847H307Q358 1002 452 1067Q547 1132 674 1132Q787 1132 872 1086Q957 1039 1004 946Q1052 852 1052 710V0H872V695Q872 824 804 897Q737 970 620 970Q540 970 476 935Q412 900 375 833Q338 766 338 670Z"/><path id="a42" d="M611 -442Q487 -442 396 -410Q306 -379 246 -327Q186 -275 151 -214L297 -120Q321 -152 356 -191Q392 -230 452 -258Q513 -285 611 -285Q745 -285 832 -221Q918 -157 918 -19V205H901Q882 173 848 129Q813 85 748 52Q684 18 576 18Q442 18 335 82Q228 145 166 267Q104 389 104 564Q104 737 165 864Q226 992 334 1062Q441 1132 580 1132Q688 1132 752 1096Q817 1061 852 1015Q887 969 906 939H923V1118H1098V-29Q1098 -173 1033 -264Q968 -356 858 -399Q747 -442 611 -442ZM606 178Q708 178 778 224Q848 271 884 358Q920 446 920 568Q920 687 884 778Q849 868 779 920Q709 971 606 971Q500 971 429 916Q358 862 322 771Q287 680 287 568Q287 453 323 365Q359 277 430 228Q501 178 606 178Z"/><path id="a43" d="M295 -13Q239 -13 200 26Q160 66 160 122Q160 178 200 218Q239 257 295 257Q351 257 390 218Q430 178 430 122Q430 66 390 26Q351 -13 295 -13ZM295 796Q239 796 200 836Q160 875 160 931Q160 987 200 1026Q239 1066 295 1066Q351 1066 390 1026Q430 987 430 931Q430 875 390 836Q351 796 295 796Z"/><path id="a44" d="M600 0V610L52 1490H272L567 1009Q617 928 656 854Q694 781 735 669H659Q700 783 739 858Q778 932 825 1009L1119 1490H1338L790 610V0Z"/><path id="a45" d="M52 0 593 1490H813L1361 0H1161L845 884Q816 966 778 1088Q739 1211 684 1401H720Q666 1209 626 1084Q587 960 561 884L254 0ZM324 416V582H1089V416Z"/><path id="a46" d="M180 0V1490H450L817 550Q830 517 846 468Q863 418 882 360Q900 302 917 244Q934 187 947 138H905Q919 184 936 240Q953 297 972 356Q990 414 1007 465Q1024 516 1037 550L1399 1490H1670V0H1483V851Q1483 897 1484 956Q1484 1015 1486 1080Q1487 1145 1488 1212Q1490 1279 1491 1342H1507Q1486 1273 1462 1202Q1439 1130 1416 1064Q1394 997 1374 942Q1354 887 1340 851L1007 0H842L504 851Q490 886 471 940Q452 993 430 1058Q407 1124 383 1196Q359 1269 334 1342H352Q354 1286 356 1221Q357 1156 358 1090Q359 1023 360 962Q361 900 361 851V0Z"/><path id="a47" d="M180 0V1490H370V168H1060V0Z"/><path id="a48" d="M789 -20Q590 -20 440 73Q290 166 206 338Q122 509 122 744Q122 981 206 1152Q290 1324 438 1417Q586 1510 777 1510Q895 1510 998 1475Q1100 1440 1181 1375Q1262 1310 1316 1220Q1369 1131 1389 1023H1193Q1170 1095 1132 1152Q1094 1209 1042 1250Q989 1291 923 1312Q857 1334 778 1334Q647 1334 540 1266Q433 1199 370 1068Q307 936 307 744Q307 554 370 423Q434 292 543 224Q652 156 789 156Q915 156 1011 210Q1107 263 1160 362Q1214 460 1214 594L1271 583H828V749H1400V586Q1400 401 1321 265Q1242 129 1104 54Q967 -20 789 -20Z"/><path id="a49" d="M677 -24Q571 -24 506 12Q441 49 406 96Q371 142 352 173H332V0H158V1490H338V939H352Q371 969 405 1014Q439 1060 503 1096Q567 1132 676 1132Q816 1132 922 1062Q1029 992 1090 862Q1150 733 1150 556Q1150 378 1090 248Q1030 118 924 47Q817 -24 677 -24ZM650 137Q755 137 826 194Q896 250 932 346Q967 441 967 558Q967 674 932 768Q897 861 826 916Q756 971 650 971Q547 971 477 919Q407 867 372 774Q336 682 336 558Q336 434 372 339Q408 244 478 190Q549 137 650 137Z"/><path id="a50" d="M471 -26Q365 -26 278 14Q192 54 141 131Q90 208 90 318Q90 414 128 474Q166 534 230 568Q293 603 370 620Q447 637 525 647Q625 660 688 667Q751 674 782 691Q812 708 812 749V755Q812 825 786 874Q760 922 708 948Q656 974 578 974Q498 974 441 949Q384 924 348 886Q313 849 295 810L122 867Q165 969 238 1026Q311 1084 399 1108Q487 1132 573 1132Q629 1132 700 1118Q772 1105 838 1065Q905 1025 948 946Q992 868 992 737V0H815V152H803Q784 113 742 72Q700 30 633 2Q566 -26 471 -26ZM502 133Q602 133 671 172Q740 211 776 274Q812 336 812 404V559Q801 546 764 536Q727 525 680 517Q632 509 588 504Q543 498 517 495Q452 487 396 468Q339 448 305 410Q271 373 271 309Q271 251 301 212Q331 173 383 153Q435 133 502 133Z"/><path id="a51" d="M180 0V1490H690Q864 1490 976 1430Q1089 1371 1144 1267Q1198 1163 1198 1030Q1198 897 1144 795Q1089 693 977 636Q865 578 691 578H286V747H682Q800 747 872 782Q943 816 976 880Q1009 943 1009 1030Q1009 1119 976 1184Q943 1250 871 1286Q799 1323 680 1323H370V0ZM1036 0 676 671H890L1256 0Z"/><path id="a52" d="M98 1322V1490H1224V1322H757V0H567V1322Z"/><path id="a53" d="M158 0V1118H333L334 868H320Q343 959 392 1018Q442 1078 508 1108Q575 1138 647 1138Q769 1138 844 1063Q920 988 942 866H918Q938 950 991 1011Q1044 1072 1120 1105Q1195 1138 1284 1138Q1381 1138 1461 1096Q1541 1054 1588 969Q1636 884 1636 754V0H1456V749Q1456 870 1388 922Q1320 974 1230 974Q1155 974 1100 942Q1046 911 1016 856Q987 801 987 730V0H807V767Q807 860 745 917Q683 974 588 974Q523 974 466 944Q408 913 373 853Q338 793 338 704V0Z"/><path id="a54" d="M158 -418V1118H332V939H352Q371 969 405 1014Q439 1060 503 1096Q567 1132 676 1132Q816 1132 922 1062Q1029 992 1090 862Q1150 733 1150 556Q1150 378 1090 248Q1030 118 924 47Q817 -24 677 -24Q571 -24 506 12Q441 49 406 96Q371 142 352 173H338V-418ZM650 137Q755 137 826 194Q896 250 932 346Q967 441 967 558Q967 674 932 768Q897 861 826 916Q756 971 650 971Q547 971 477 919Q407 867 372 774Q336 682 336 558Q336 434 372 339Q408 244 478 190Q549 137 650 137Z"/><path id="a55" d="M545 -20Q348 -20 224 96Q100 212 100 426V506H290V426Q290 290 360 218Q430 147 545 147Q659 147 729 218Q799 290 799 426V1490H989V426Q989 212 866 96Q742 -20 545 -20Z"/><path id="a56" d="M295 -13Q239 -13 200 26Q160 66 160 122Q160 178 200 218Q239 257 295 257Q351 257 390 218Q430 178 430 122Q430 66 390 26Q351 -13 295 -13Z"/><path id="c57" d="M239 0 55 550H147L269 180Q280 147 289 116Q298 86 302 69Q307 86 316 116Q325 147 335 180L454 550H545L361 0Z"/><path id="c58" d="M300 -10Q262 -10 240 12Q217 34 217 71Q217 110 240 133Q262 156 300 156Q338 156 360 133Q383 110 383 71Q383 34 360 12Q338 -10 300 -10Z"/><path id="c59" d="M90 0V82H288V655L90 507V607L255 730H378V82H540V0Z"/><path id="c60" d="M92 0V730H327Q395 730 445 704Q495 677 522 629Q550 581 550 515Q550 450 522 402Q495 353 445 326Q395 300 327 300H182V0ZM182 381H327Q386 381 422 418Q457 454 457 515Q457 577 422 613Q386 649 327 649H182Z"/><path id="c61" d="M178 -180 259 34 55 550H155L283 210Q290 193 296 170Q302 146 306 130Q310 146 316 170Q322 193 328 210L448 550H545L274 -180Z"/><path id="c62" d="M360 0Q289 0 250 38Q210 76 210 145V468H55V550H210V705H300V550H520V468H300V145Q300 82 360 82H510V0Z"/><path id="c63" d="M92 0V730H182V550V445H201L182 424Q182 489 221 524Q260 560 329 560Q412 560 461 509Q510 458 510 370V0H420V360Q420 419 388 452Q357 484 303 484Q247 484 214 449Q182 414 182 350V0Z"/><path id="c64" d="M300 -8Q234 -8 186 17Q138 42 112 90Q85 137 85 202V348Q85 414 112 461Q138 508 186 533Q234 558 300 558Q366 558 414 533Q462 508 488 461Q515 414 515 349V202Q515 137 488 90Q462 42 414 17Q366 -8 300 -8ZM300 72Q359 72 392 105Q425 138 425 202V348Q425 412 392 445Q359 478 300 478Q242 478 208 445Q175 412 175 348V202Q175 138 208 105Q242 72 300 72Z"/><path id="c65" d="M92 0V550H182V445H201L182 424Q182 489 221 524Q260 560 329 560Q412 560 461 509Q510 458 510 370V0H420V360Q420 419 388 450Q357 482 303 482Q247 482 214 448Q182 414 182 350V0Z"/>
</defs>
<style>
.p{animation:pin 2.4s cubic-bezier(.22,1,.36,1) var(--d) both,tw 3.2s ease-in-out calc(var(--d) + 2.4s) infinite alternate}
@keyframes pin{from{transform:translate(var(--x),var(--y));opacity:0}}
@keyframes tw{to{opacity:.35}}
.fu{animation:fu 1.1s cubic-bezier(.22,1,.36,1) var(--d,0s) both}
@keyframes fu{from{opacity:0;transform:translateY(14px)}}
.h{fill:#03241b}.blink{animation:bl 1.1s steps(1) infinite}@keyframes bl{50%{opacity:0}}
@media (prefers-reduced-motion:reduce){*{animation:none!important}}
.gl{animation:br 6s ease-in-out 2.6s infinite alternate;transform-origin:150px 150px}@keyframes br{to{transform:scale(1.035)}}
</style>
<g clip-path="url(#clip)">
<rect width="640" height="300" fill="#f5f5f2"/>
<rect width="640" height="300" fill="url(#dots)"/>
<rect width="640" height="300" fill="url(#g)"/>
<rect x="16" y="16" width="268" height="268" rx="16" fill="#2ad4a4" fill-opacity="0.080" stroke="#e2e3df"/>
<g class="gl"><g fill="#078a68" fill-opacity=".85"><circle class="p" cx="217" cy="100" r="2.1" style="--x:-41px;--y:-113px;--d:0.7s"/><circle class="p" cx="86" cy="108" r="1.5" style="--x:108px;--y:120px;--d:0.9s"/><circle class="p" cx="147" cy="182" r="1.5" style="--x:87px;--y:11px;--d:0.6s"/><circle class="p" cx="204" cy="96" r="1.9" style="--x:-27px;--y:17px;--d:0.6s"/><circle class="p" cx="229" cy="225" r="1.7" style="--x:-117px;--y:36px;--d:0.9s"/><circle class="p" cx="137" cy="189" r="2.1" style="--x:-86px;--y:-112px;--d:0.6s"/><circle class="p" cx="163" cy="196" r="2.0" style="--x:-85px;--y:17px;--d:0.1s"/><circle class="p" cx="110" cy="167" r="2.0" style="--x:74px;--y:-117px;--d:0.4s"/><circle class="p h" cx="219" cy="82" r="2.0" style="--x:-130px;--y:-98px;--d:0.4s"/><circle class="p" cx="149" cy="176" r="1.5" style="--x:132px;--y:-68px;--d:0.9s"/><circle class="p" cx="135" cy="185" r="1.3" style="--x:-175px;--y:-53px;--d:0.7s"/><circle class="p" cx="214" cy="82" r="1.0" style="--x:-15px;--y:-111px;--d:0.8s"/><circle class="p" cx="77" cy="110" r="2.2" style="--x:32px;--y:64px;--d:0.1s"/><circle class="p" cx="77" cy="100" r="1.2" style="--x:130px;--y:63px;--d:0.9s"/><circle class="p h" cx="63" cy="100" r="1.0" style="--x:57px;--y:-1px;--d:0.3s"/><circle class="p" cx="135" cy="207" r="1.0" style="--x:-55px;--y:15px;--d:0.6s"/><circle class="p" cx="73" cy="94" r="1.4" style="--x:-59px;--y:-6px;--d:0.2s"/><circle class="p" cx="185" cy="124" r="1.9" style="--x:55px;--y:6px;--d:0.4s"/><circle class="p h" cx="74" cy="98" r="1.8" style="--x:-66px;--y:-66px;--d:0.7s"/><circle class="p" cx="177" cy="153" r="1.3" style="--x:-77px;--y:-76px;--d:0.7s"/><circle class="p" cx="75" cy="98" r="1.8" style="--x:-137px;--y:89px;--d:0.4s"/><circle class="p" cx="196" cy="105" r="1.3" style="--x:16px;--y:-38px;--d:0.6s"/><circle class="p" cx="104" cy="149" r="1.5" style="--x:52px;--y:43px;--d:0.3s"/><circle class="p" cx="64" cy="103" r="1.6" style="--x:-90px;--y:25px;--d:0.8s"/><circle class="p" cx="142" cy="184" r="1.1" style="--x:129px;--y:-91px;--d:0.1s"/><circle class="p" cx="142" cy="204" r="1.6" style="--x:176px;--y:-57px;--d:0.6s"/><circle class="p" cx="84" cy="111" r="1.5" style="--x:169px;--y:92px;--d:0.6s"/><circle class="p" cx="186" cy="120" r="1.7" style="--x:-15px;--y:-83px;--d:0.8s"/><circle class="p" cx="197" cy="100" r="1.7" style="--x:140px;--y:-110px;--d:0.3s"/><circle class="p" cx="172" cy="195" r="1.6" style="--x:125px;--y:94px;--d:0.1s"/><circle class="p" cx="155" cy="207" r="1.8" style="--x:41px;--y:-39px;--d:0.9s"/><circle class="p" cx="138" cy="202" r="1.3" style="--x:-27px;--y:28px;--d:0.7s"/><circle class="p" cx="228" cy="213" r="1.6" style="--x:151px;--y:-40px;--d:0.7s"/><circle class="p" cx="180" cy="143" r="1.3" style="--x:145px;--y:-13px;--d:0.7s"/><circle class="p" cx="227" cy="222" r="1.8" style="--x:-50px;--y:111px;--d:0.9s"/><circle class="p" cx="135" cy="198" r="1.9" style="--x:-25px;--y:39px;--d:0.5s"/><circle class="p" cx="73" cy="105" r="2.0" style="--x:-23px;--y:27px;--d:0.5s"/><circle class="p" cx="224" cy="220" r="1.3" style="--x:53px;--y:-49px;--d:0.5s"/><circle class="p" cx="232" cy="211" r="1.4" style="--x:83px;--y:-120px;--d:0.5s"/><circle class="p" cx="151" cy="197" r="1.2" style="--x:154px;--y:-3px;--d:0.8s"/><circle class="p" cx="236" cy="226" r="1.6" style="--x:134px;--y:0px;--d:0.4s"/><circle class="p" cx="155" cy="198" r="2.1" style="--x:75px;--y:-74px;--d:0.3s"/><circle class="p" cx="231" cy="217" r="1.1" style="--x:-84px;--y:-71px;--d:0.2s"/><circle class="p h" cx="150" cy="209" r="1.5" style="--x:11px;--y:-40px;--d:0.4s"/><circle class="p" cx="194" cy="103" r="1.7" style="--x:-88px;--y:76px;--d:0.2s"/><circle class="p" cx="84" cy="99" r="2.1" style="--x:162px;--y:41px;--d:0.9s"/><circle class="p" cx="139" cy="175" r="2.1" style="--x:-123px;--y:121px;--d:1.0s"/><circle class="p" cx="153" cy="184" r="1.1" style="--x:137px;--y:81px;--d:0.1s"/><circle class="p" cx="99" cy="127" r="1.4" style="--x:36px;--y:-92px;--d:0.5s"/><circle class="p" cx="191" cy="119" r="1.5" style="--x:-108px;--y:-6px;--d:0.5s"/><circle class="p" cx="197" cy="211" r="1.8" style="--x:133px;--y:-121px;--d:0.3s"/><circle class="p" cx="203" cy="211" r="1.6" style="--x:171px;--y:-110px;--d:0.9s"/><circle class="p" cx="223" cy="91" r="1.4" style="--x:79px;--y:-94px;--d:0.4s"/><circle class="p" cx="150" cy="197" r="1.5" style="--x:-176px;--y:46px;--d:0.5s"/><circle class="p h" cx="228" cy="225" r="1.4" style="--x:-57px;--y:-113px;--d:0.2s"/><circle class="p" cx="119" cy="172" r="1.3" style="--x:130px;--y:35px;--d:0.8s"/><circle class="p" cx="235" cy="220" r="1.5" style="--x:-21px;--y:123px;--d:0.1s"/><circle class="p" cx="197" cy="98" r="1.8" style="--x:-161px;--y:-111px;--d:0.6s"/><circle class="p" cx="219" cy="84" r="1.2" style="--x:-4px;--y:-87px;--d:0.2s"/><circle class="p" cx="153" cy="203" r="1.0" style="--x:-11px;--y:-70px;--d:0.5s"/><circle class="p" cx="71" cy="114" r="1.2" style="--x:-132px;--y:40px;--d:0.6s"/><circle class="p" cx="210" cy="91" r="1.3" style="--x:37px;--y:-50px;--d:0.9s"/><circle class="p" cx="122" cy="195" r="1.8" style="--x:-167px;--y:9px;--d:0.9s"/><circle class="p" cx="230" cy="222" r="1.0" style="--x:-26px;--y:-109px;--d:0.8s"/><circle class="p" cx="196" cy="207" r="2.1" style="--x:72px;--y:76px;--d:0.1s"/><circle class="p" cx="142" cy="183" r="1.4" style="--x:-21px;--y:81px;--d:0.8s"/><circle class="p" cx="223" cy="98" r="2.1" style="--x:-75px;--y:-16px;--d:0.8s"/><circle class="p" cx="170" cy="162" r="1.2" style="--x:-169px;--y:100px;--d:0.9s"/><circle class="p" cx="181" cy="203" r="1.3" style="--x:-72px;--y:23px;--d:1.0s"/><circle class="p" cx="128" cy="186" r="1.4" style="--x:-6px;--y:-0px;--d:0.6s"/><circle class="p" cx="121" cy="176" r="2.0" style="--x:-33px;--y:-107px;--d:0.8s"/><circle class="p" cx="69" cy="102" r="1.9" style="--x:-52px;--y:86px;--d:0.5s"/><circle class="p" cx="61" cy="101" r="1.6" style="--x:78px;--y:27px;--d:0.3s"/><circle class="p" cx="223" cy="225" r="2.1" style="--x:109px;--y:-10px;--d:0.1s"/><circle class="p" cx="84" cy="100" r="1.1" style="--x:37px;--y:99px;--d:0.3s"/><circle class="p" cx="109" cy="160" r="1.0" style="--x:146px;--y:-69px;--d:0.4s"/><circle class="p" cx="118" cy="172" r="1.3" style="--x:129px;--y:-114px;--d:0.2s"/><circle class="p" cx="210" cy="93" r="1.8" style="--x:-159px;--y:74px;--d:0.4s"/><circle class="p" cx="76" cy="106" r="1.7" style="--x:119px;--y:77px;--d:0.1s"/><circle class="p" cx="227" cy="226" r="2.0" style="--x:100px;--y:-4px;--d:0.8s"/><circle class="p" cx="208" cy="97" r="1.4" style="--x:-149px;--y:-14px;--d:0.9s"/><circle class="p" cx="137" cy="209" r="2.0" style="--x:110px;--y:60px;--d:0.0s"/><circle class="p" cx="172" cy="198" r="1.7" style="--x:171px;--y:-15px;--d:0.1s"/><circle class="p" cx="192" cy="110" r="1.8" style="--x:-132px;--y:-29px;--d:0.1s"/><circle class="p" cx="175" cy="160" r="2.1" style="--x:16px;--y:37px;--d:0.1s"/><circle class="p" cx="226" cy="229" r="1.3" style="--x:-131px;--y:69px;--d:0.9s"/><circle class="p" cx="143" cy="182" r="2.1" style="--x:96px;--y:-70px;--d:0.8s"/><circle class="p h" cx="84" cy="106" r="1.4" style="--x:94px;--y:-40px;--d:0.8s"/><circle class="p h" cx="177" cy="138" r="1.3" style="--x:57px;--y:117px;--d:0.8s"/><circle class="p" cx="213" cy="92" r="2.1" style="--x:-59px;--y:-22px;--d:0.7s"/><circle class="p" cx="139" cy="177" r="1.6" style="--x:-118px;--y:-42px;--d:0.2s"/><circle class="p" cx="167" cy="197" r="2.1" style="--x:-2px;--y:-85px;--d:0.1s"/><circle class="p" cx="142" cy="208" r="2.0" style="--x:-170px;--y:14px;--d:0.6s"/><circle class="p" cx="136" cy="201" r="1.5" style="--x:-7px;--y:31px;--d:0.7s"/><circle class="p h" cx="121" cy="176" r="1.2" style="--x:1px;--y:-73px;--d:0.9s"/><circle class="p" cx="165" cy="176" r="1.7" style="--x:161px;--y:-54px;--d:1.0s"/><circle class="p" cx="112" cy="164" r="2.2" style="--x:-146px;--y:9px;--d:0.4s"/><circle class="p" cx="229" cy="94" r="1.0" style="--x:-110px;--y:62px;--d:0.2s"/><circle class="p" cx="80" cy="104" r="1.6" style="--x:-72px;--y:1px;--d:0.8s"/><circle class="p" cx="139" cy="196" r="1.2" style="--x:40px;--y:120px;--d:0.1s"/><circle class="p" cx="206" cy="102" r="1.6" style="--x:-133px;--y:4px;--d:0.5s"/><circle class="p" cx="204" cy="98" r="1.5" style="--x:-16px;--y:-61px;--d:0.4s"/><circle class="p" cx="59" cy="98" r="1.9" style="--x:-75px;--y:44px;--d:1.0s"/><circle class="p" cx="190" cy="120" r="1.8" style="--x:153px;--y:45px;--d:0.7s"/><circle class="p" cx="68" cy="95" r="1.7" style="--x:135px;--y:57px;--d:0.7s"/><circle class="p" cx="212" cy="91" r="2.1" style="--x:-68px;--y:-57px;--d:0.7s"/><circle class="p" cx="76" cy="101" r="1.4" style="--x:66px;--y:-80px;--d:0.9s"/><circle class="p" cx="129" cy="200" r="1.5" style="--x:-155px;--y:42px;--d:0.4s"/><circle class="p h" cx="77" cy="111" r="1.8" style="--x:-46px;--y:21px;--d:0.2s"/><circle class="p" cx="134" cy="186" r="2.0" style="--x:17px;--y:-4px;--d:0.4s"/><circle class="p" cx="186" cy="121" r="1.7" style="--x:87px;--y:116px;--d:0.4s"/><circle class="p h" cx="133" cy="186" r="1.6" style="--x:147px;--y:-5px;--d:0.1s"/><circle class="p" cx="227" cy="229" r="1.3" style="--x:37px;--y:-16px;--d:0.5s"/><circle class="p" cx="143" cy="203" r="2.2" style="--x:42px;--y:85px;--d:0.6s"/><circle class="p" cx="210" cy="101" r="1.0" style="--x:-165px;--y:102px;--d:0.8s"/><circle class="p" cx="226" cy="223" r="2.1" style="--x:74px;--y:119px;--d:0.0s"/><circle class="p" cx="142" cy="191" r="1.8" style="--x:-105px;--y:64px;--d:0.3s"/><circle class="p" cx="175" cy="158" r="2.1" style="--x:95px;--y:-83px;--d:0.9s"/><circle class="p" cx="109" cy="148" r="1.3" style="--x:-97px;--y:-36px;--d:0.5s"/><circle class="p" cx="91" cy="117" r="1.5" style="--x:138px;--y:-110px;--d:0.2s"/><circle class="p" cx="147" cy="201" r="2.2" style="--x:65px;--y:-108px;--d:0.8s"/><circle class="p" cx="223" cy="81" r="2.1" style="--x:53px;--y:113px;--d:0.5s"/><circle class="p" cx="151" cy="181" r="1.4" style="--x:-56px;--y:-35px;--d:0.6s"/><circle class="p" cx="114" cy="176" r="2.2" style="--x:153px;--y:-12px;--d:0.4s"/><circle class="p" cx="226" cy="94" r="1.3" style="--x:139px;--y:-37px;--d:0.1s"/><circle class="p" cx="76" cy="112" r="1.8" style="--x:-166px;--y:11px;--d:0.9s"/><circle class="p" cx="222" cy="88" r="1.3" style="--x:-43px;--y:107px;--d:0.9s"/><circle class="p" cx="132" cy="190" r="1.2" style="--x:172px;--y:23px;--d:0.1s"/><circle class="p" cx="236" cy="223" r="2.0" style="--x:-120px;--y:-109px;--d:1.0s"/><circle class="p" cx="133" cy="210" r="1.2" style="--x:-18px;--y:-78px;--d:0.5s"/><circle class="p" cx="171" cy="202" r="2.0" style="--x:-68px;--y:-29px;--d:0.8s"/><circle class="p" cx="126" cy="201" r="1.4" style="--x:-127px;--y:-11px;--d:1.0s"/><circle class="p" cx="177" cy="144" r="1.8" style="--x:-162px;--y:95px;--d:0.2s"/><circle class="p" cx="109" cy="159" r="1.5" style="--x:59px;--y:116px;--d:0.7s"/><circle class="p" cx="243" cy="218" r="1.4" style="--x:111px;--y:-50px;--d:0.6s"/><circle class="p" cx="230" cy="219" r="1.4" style="--x:-160px;--y:-83px;--d:0.0s"/><circle class="p" cx="178" cy="138" r="1.5" style="--x:-43px;--y:-116px;--d:0.6s"/><circle class="p" cx="143" cy="182" r="1.9" style="--x:-90px;--y:85px;--d:0.5s"/><circle class="p" cx="242" cy="215" r="1.7" style="--x:-14px;--y:-119px;--d:0.9s"/><circle class="p" cx="71" cy="99" r="2.1" style="--x:-92px;--y:-97px;--d:0.8s"/><circle class="p" cx="65" cy="104" r="1.0" style="--x:46px;--y:29px;--d:0.8s"/><circle class="p" cx="64" cy="102" r="1.5" style="--x:-134px;--y:57px;--d:0.4s"/><circle class="p" cx="208" cy="81" r="1.6" style="--x:-53px;--y:-7px;--d:0.9s"/><circle class="p" cx="62" cy="100" r="1.6" style="--x:-171px;--y:8px;--d:0.2s"/><circle class="p" cx="70" cy="111" r="1.2" style="--x:-58px;--y:-94px;--d:0.4s"/><circle class="p" cx="219" cy="87" r="1.1" style="--x:-61px;--y:-125px;--d:0.4s"/><circle class="p" cx="184" cy="122" r="1.2" style="--x:-31px;--y:72px;--d:0.7s"/><circle class="p" cx="167" cy="173" r="1.0" style="--x:-75px;--y:102px;--d:0.8s"/><circle class="p" cx="128" cy="199" r="1.0" style="--x:-81px;--y:97px;--d:0.7s"/><circle class="p" cx="218" cy="104" r="1.2" style="--x:-21px;--y:-14px;--d:0.9s"/><circle class="p" cx="140" cy="180" r="1.7" style="--x:128px;--y:36px;--d:0.3s"/><circle class="p" cx="207" cy="86" r="1.3" style="--x:-46px;--y:-88px;--d:0.8s"/><circle class="p" cx="133" cy="199" r="1.2" style="--x:-141px;--y:52px;--d:0.6s"/><circle class="p h" cx="193" cy="103" r="1.3" style="--x:-34px;--y:62px;--d:0.8s"/><circle class="p" cx="220" cy="87" r="1.4" style="--x:64px;--y:67px;--d:0.5s"/><circle class="p" cx="137" cy="196" r="1.9" style="--x:158px;--y:58px;--d:0.7s"/><circle class="p" cx="198" cy="102" r="1.4" style="--x:-142px;--y:-74px;--d:1.0s"/><circle class="p" cx="145" cy="175" r="1.5" style="--x:158px;--y:-98px;--d:0.1s"/><circle class="p h" cx="221" cy="98" r="1.6" style="--x:-73px;--y:-48px;--d:1.0s"/><circle class="p" cx="136" cy="199" r="1.9" style="--x:47px;--y:-34px;--d:0.1s"/><circle class="p" cx="72" cy="103" r="1.2" style="--x:-31px;--y:-23px;--d:0.0s"/><circle class="p" cx="152" cy="207" r="1.9" style="--x:49px;--y:-38px;--d:0.5s"/><circle class="p" cx="140" cy="186" r="1.3" style="--x:-32px;--y:-106px;--d:0.5s"/><circle class="p" cx="162" cy="194" r="1.7" style="--x:-10px;--y:-49px;--d:0.8s"/><circle class="p" cx="227" cy="209" r="1.3" style="--x:-153px;--y:-120px;--d:0.7s"/><circle class="p" cx="212" cy="84" r="2.1" style="--x:-104px;--y:31px;--d:0.7s"/><circle class="p" cx="165" cy="169" r="1.8" style="--x:121px;--y:22px;--d:0.7s"/><circle class="p" cx="83" cy="99" r="1.9" style="--x:105px;--y:103px;--d:0.5s"/><circle class="p" cx="162" cy="197" r="1.8" style="--x:-145px;--y:47px;--d:0.1s"/><circle class="p" cx="77" cy="107" r="1.8" style="--x:-138px;--y:17px;--d:0.4s"/><circle class="p h" cx="237" cy="227" r="1.5" style="--x:-147px;--y:50px;--d:0.0s"/><circle class="p" cx="167" cy="170" r="2.1" style="--x:-16px;--y:98px;--d:0.7s"/><circle class="p" cx="203" cy="86" r="1.1" style="--x:169px;--y:-111px;--d:1.0s"/><circle class="p" cx="238" cy="214" r="1.0" style="--x:92px;--y:-66px;--d:0.7s"/><circle class="p" cx="213" cy="102" r="1.9" style="--x:-33px;--y:-11px;--d:0.3s"/><circle class="p" cx="62" cy="99" r="1.2" style="--x:83px;--y:-98px;--d:0.7s"/><circle class="p" cx="240" cy="222" r="1.3" style="--x:100px;--y:-4px;--d:0.2s"/><circle class="p" cx="156" cy="198" r="1.7" style="--x:-23px;--y:118px;--d:0.3s"/><circle class="p" cx="226" cy="220" r="1.6" style="--x:-88px;--y:-40px;--d:0.3s"/><circle class="p" cx="209" cy="86" r="1.0" style="--x:47px;--y:47px;--d:0.1s"/><circle class="p" cx="157" cy="193" r="1.0" style="--x:79px;--y:45px;--d:0.7s"/><circle class="p" cx="107" cy="152" r="1.6" style="--x:-76px;--y:-47px;--d:0.3s"/><circle class="p" cx="59" cy="106" r="2.1" style="--x:-125px;--y:-107px;--d:0.4s"/><circle class="p" cx="100" cy="136" r="2.1" style="--x:-61px;--y:-37px;--d:0.6s"/><circle class="p" cx="162" cy="181" r="1.6" style="--x:-148px;--y:-14px;--d:0.7s"/><circle class="p" cx="213" cy="96" r="1.6" style="--x:13px;--y:120px;--d:0.2s"/><circle class="p h" cx="154" cy="187" r="1.2" style="--x:-39px;--y:-40px;--d:0.8s"/><circle class="p" cx="71" cy="108" r="1.3" style="--x:125px;--y:43px;--d:0.7s"/><circle class="p" cx="156" cy="192" r="1.0" style="--x:-64px;--y:102px;--d:0.9s"/><circle class="p" cx="156" cy="201" r="1.5" style="--x:-119px;--y:-23px;--d:0.8s"/><circle class="p" cx="157" cy="190" r="1.8" style="--x:-173px;--y:31px;--d:1.0s"/><circle class="p" cx="206" cy="101" r="1.2" style="--x:52px;--y:-98px;--d:0.6s"/><circle class="p" cx="190" cy="119" r="1.9" style="--x:156px;--y:32px;--d:0.3s"/><circle class="p" cx="174" cy="143" r="1.6" style="--x:70px;--y:-113px;--d:0.3s"/><circle class="p" cx="133" cy="190" r="1.8" style="--x:-27px;--y:-31px;--d:0.7s"/><circle class="p" cx="148" cy="200" r="2.0" style="--x:-126px;--y:-104px;--d:0.1s"/><circle class="p" cx="123" cy="202" r="2.0" style="--x:-116px;--y:-105px;--d:0.1s"/><circle class="p" cx="75" cy="98" r="1.8" style="--x:129px;--y:-2px;--d:0.2s"/><circle class="p" cx="144" cy="179" r="1.5" style="--x:74px;--y:-3px;--d:0.3s"/><circle class="p" cx="81" cy="104" r="1.3" style="--x:-43px;--y:-33px;--d:0.9s"/><circle class="p" cx="221" cy="96" r="1.4" style="--x:41px;--y:-1px;--d:0.1s"/><circle class="p" cx="128" cy="201" r="1.7" style="--x:-138px;--y:72px;--d:0.4s"/><circle class="p" cx="202" cy="215" r="1.1" style="--x:50px;--y:-51px;--d:1.0s"/><circle class="p" cx="156" cy="193" r="1.8" style="--x:-79px;--y:-22px;--d:0.1s"/><circle class="p" cx="143" cy="206" r="1.5" style="--x:-85px;--y:67px;--d:0.1s"/><circle class="p" cx="115" cy="163" r="1.5" style="--x:5px;--y:-5px;--d:1.0s"/><circle class="p h" cx="192" cy="211" r="1.4" style="--x:-146px;--y:-120px;--d:0.2s"/><circle class="p" cx="112" cy="158" r="1.5" style="--x:159px;--y:-96px;--d:0.6s"/><circle class="p" cx="145" cy="180" r="1.6" style="--x:59px;--y:-25px;--d:0.3s"/><circle class="p" cx="183" cy="131" r="1.9" style="--x:-96px;--y:-26px;--d:0.7s"/><circle class="p" cx="140" cy="177" r="1.4" style="--x:-108px;--y:-33px;--d:0.7s"/><circle class="p" cx="149" cy="176" r="1.5" style="--x:-5px;--y:2px;--d:0.2s"/><circle class="p" cx="225" cy="97" r="1.4" style="--x:-60px;--y:-116px;--d:0.7s"/><circle class="p" cx="221" cy="204" r="2.2" style="--x:42px;--y:109px;--d:0.1s"/><circle class="p" cx="240" cy="219" r="1.2" style="--x:6px;--y:44px;--d:0.3s"/><circle class="p" cx="229" cy="96" r="2.1" style="--x:-102px;--y:14px;--d:0.6s"/><circle class="p" cx="235" cy="205" r="1.9" style="--x:-13px;--y:-3px;--d:0.3s"/><circle class="p" cx="237" cy="205" r="1.9" style="--x:175px;--y:30px;--d:0.6s"/><circle class="p" cx="206" cy="88" r="1.3" style="--x:167px;--y:-49px;--d:0.9s"/><circle class="p" cx="221" cy="96" r="1.4" style="--x:47px;--y:-40px;--d:0.7s"/><circle class="p" cx="146" cy="185" r="1.2" style="--x:71px;--y:61px;--d:0.2s"/><circle class="p" cx="60" cy="110" r="1.3" style="--x:-2px;--y:15px;--d:1.0s"/><circle class="p" cx="148" cy="197" r="1.3" style="--x:-74px;--y:122px;--d:0.4s"/><circle class="p" cx="135" cy="212" r="1.2" style="--x:19px;--y:-2px;--d:0.1s"/><circle class="p" cx="224" cy="89" r="1.9" style="--x:-119px;--y:-120px;--d:0.1s"/><circle class="p" cx="233" cy="211" r="1.7" style="--x:123px;--y:27px;--d:0.8s"/><circle class="p" cx="145" cy="212" r="2.1" style="--x:65px;--y:-8px;--d:0.8s"/><circle class="p" cx="118" cy="171" r="1.9" style="--x:109px;--y:-101px;--d:0.9s"/><circle class="p" cx="173" cy="197" r="1.8" style="--x:-156px;--y:-2px;--d:0.2s"/><circle class="p" cx="148" cy="202" r="2.1" style="--x:76px;--y:77px;--d:0.8s"/><circle class="p" cx="106" cy="150" r="1.9" style="--x:92px;--y:-82px;--d:0.1s"/><circle class="p" cx="152" cy="179" r="1.0" style="--x:172px;--y:-114px;--d:0.2s"/><circle class="p" cx="67" cy="95" r="1.8" style="--x:-79px;--y:86px;--d:0.6s"/><circle class="p" cx="217" cy="219" r="1.5" style="--x:-173px;--y:120px;--d:0.0s"/><circle class="p" cx="114" cy="171" r="1.1" style="--x:74px;--y:-80px;--d:0.0s"/><circle class="p" cx="197" cy="102" r="1.3" style="--x:-1px;--y:101px;--d:0.1s"/><circle class="p" cx="212" cy="95" r="1.3" style="--x:169px;--y:97px;--d:0.8s"/><circle class="p" cx="185" cy="204" r="1.7" style="--x:56px;--y:-26px;--d:0.8s"/><circle class="p" cx="207" cy="95" r="1.5" style="--x:-43px;--y:-77px;--d:1.0s"/><circle class="p" cx="136" cy="179" r="1.1" style="--x:119px;--y:-109px;--d:0.0s"/><circle class="p" cx="158" cy="199" r="1.0" style="--x:167px;--y:62px;--d:1.0s"/><circle class="p h" cx="202" cy="91" r="1.4" style="--x:81px;--y:-85px;--d:0.2s"/><circle class="p" cx="139" cy="195" r="1.0" style="--x:-155px;--y:-122px;--d:0.6s"/><circle class="p" cx="220" cy="207" r="1.4" style="--x:136px;--y:68px;--d:0.4s"/><circle class="p" cx="197" cy="100" r="2.0" style="--x:-122px;--y:-78px;--d:0.7s"/><circle class="p" cx="77" cy="103" r="1.0" style="--x:146px;--y:-77px;--d:0.6s"/><circle class="p" cx="228" cy="229" r="2.2" style="--x:-174px;--y:-78px;--d:0.8s"/><circle class="p" cx="69" cy="100" r="1.6" style="--x:72px;--y:-74px;--d:0.8s"/><circle class="p" cx="116" cy="178" r="1.1" style="--x:-24px;--y:124px;--d:0.9s"/><circle class="p" cx="151" cy="198" r="1.9" style="--x:-82px;--y:54px;--d:0.6s"/><circle class="p" cx="213" cy="102" r="1.7" style="--x:-21px;--y:116px;--d:0.6s"/><circle class="p" cx="188" cy="115" r="1.7" style="--x:-74px;--y:-89px;--d:0.0s"/><circle class="p h" cx="228" cy="93" r="1.6" style="--x:-21px;--y:95px;--d:0.6s"/><circle class="p h" cx="83" cy="94" r="1.9" style="--x:-56px;--y:-97px;--d:0.2s"/><circle class="p h" cx="124" cy="179" r="1.7" style="--x:-95px;--y:49px;--d:0.9s"/><circle class="p" cx="119" cy="179" r="2.2" style="--x:-118px;--y:57px;--d:0.7s"/><circle class="p" cx="141" cy="206" r="1.1" style="--x:161px;--y:73px;--d:0.7s"/><circle class="p" cx="147" cy="203" r="1.4" style="--x:24px;--y:81px;--d:0.9s"/><circle class="p" cx="73" cy="102" r="1.8" style="--x:163px;--y:84px;--d:0.2s"/><circle class="p" cx="160" cy="187" r="1.5" style="--x:81px;--y:49px;--d:0.7s"/><circle class="p" cx="106" cy="147" r="1.3" style="--x:-2px;--y:-59px;--d:0.5s"/><circle class="p" cx="216" cy="94" r="2.1" style="--x:116px;--y:-35px;--d:0.8s"/><circle class="p" cx="97" cy="123" r="1.6" style="--x:-72px;--y:-31px;--d:0.7s"/><circle class="p" cx="231" cy="210" r="2.1" style="--x:-50px;--y:-113px;--d:0.5s"/><circle class="p" cx="140" cy="185" r="1.0" style="--x:-46px;--y:-47px;--d:0.6s"/><circle class="p" cx="146" cy="191" r="2.1" style="--x:21px;--y:-48px;--d:0.2s"/><circle class="p" cx="160" cy="192" r="1.2" style="--x:97px;--y:113px;--d:0.8s"/><circle class="p" cx="76" cy="98" r="1.5" style="--x:160px;--y:5px;--d:1.0s"/><circle class="p" cx="112" cy="163" r="1.2" style="--x:-116px;--y:-63px;--d:0.3s"/><circle class="p" cx="200" cy="98" r="2.0" style="--x:7px;--y:26px;--d:0.7s"/><circle class="p" cx="135" cy="188" r="1.4" style="--x:125px;--y:56px;--d:0.5s"/><circle class="p" cx="119" cy="178" r="2.1" style="--x:165px;--y:56px;--d:0.1s"/><circle class="p" cx="172" cy="155" r="1.1" style="--x:-76px;--y:42px;--d:0.2s"/><circle class="p" cx="154" cy="195" r="1.4" style="--x:-98px;--y:1px;--d:0.3s"/><circle class="p" cx="80" cy="93" r="1.6" style="--x:125px;--y:73px;--d:0.5s"/><circle class="p" cx="185" cy="204" r="1.6" style="--x:38px;--y:-42px;--d:0.2s"/><circle class="p" cx="225" cy="82" r="1.4" style="--x:-134px;--y:-122px;--d:0.1s"/><circle class="p" cx="220" cy="84" r="1.5" style="--x:28px;--y:82px;--d:0.2s"/><circle class="p" cx="90" cy="109" r="1.7" style="--x:105px;--y:99px;--d:0.7s"/><circle class="p" cx="84" cy="109" r="1.7" style="--x:84px;--y:97px;--d:1.0s"/><circle class="p h" cx="230" cy="221" r="1.7" style="--x:-82px;--y:14px;--d:0.2s"/><circle class="p" cx="133" cy="184" r="1.0" style="--x:-121px;--y:-85px;--d:0.8s"/><circle class="p" cx="175" cy="155" r="1.4" style="--x:-150px;--y:-53px;--d:0.1s"/><circle class="p" cx="154" cy="181" r="1.1" style="--x:-75px;--y:-6px;--d:0.2s"/><circle class="p" cx="148" cy="192" r="1.6" style="--x:-10px;--y:67px;--d:0.7s"/><circle class="p" cx="232" cy="204" r="2.0" style="--x:-102px;--y:-99px;--d:0.7s"/><circle class="p" cx="154" cy="196" r="1.3" style="--x:164px;--y:38px;--d:0.6s"/><circle class="p" cx="155" cy="188" r="1.1" style="--x:-58px;--y:68px;--d:0.4s"/><circle class="p" cx="76" cy="106" r="2.0" style="--x:-133px;--y:-48px;--d:0.2s"/><circle class="p h" cx="133" cy="198" r="1.9" style="--x:-128px;--y:98px;--d:0.6s"/><circle class="p" cx="206" cy="210" r="1.4" style="--x:100px;--y:59px;--d:0.4s"/><circle class="p" cx="192" cy="120" r="1.7" style="--x:121px;--y:118px;--d:0.8s"/><circle class="p" cx="89" cy="112" r="1.6" style="--x:-81px;--y:-28px;--d:0.9s"/><circle class="p" cx="165" cy="174" r="1.4" style="--x:-149px;--y:87px;--d:0.3s"/><circle class="p" cx="83" cy="102" r="1.9" style="--x:141px;--y:-63px;--d:0.9s"/><circle class="p" cx="111" cy="167" r="1.1" style="--x:115px;--y:-55px;--d:0.2s"/><circle class="p" cx="219" cy="87" r="1.0" style="--x:173px;--y:-3px;--d:0.3s"/><circle class="p h" cx="236" cy="210" r="2.1" style="--x:51px;--y:25px;--d:0.1s"/><circle class="p" cx="85" cy="112" r="1.6" style="--x:-129px;--y:-6px;--d:0.9s"/><circle class="p" cx="226" cy="223" r="1.5" style="--x:147px;--y:90px;--d:0.7s"/></g></g>
<path d="M26 38V26H38" fill="none" stroke="#078a68" stroke-width="1.5" stroke-opacity=".8"/>
<path d="M274 38V26H262" fill="none" stroke="#078a68" stroke-width="1.5" stroke-opacity=".8"/>
<path d="M26 262V274H38" fill="none" stroke="#078a68" stroke-width="1.5" stroke-opacity=".8"/>
<path d="M274 262V274H262" fill="none" stroke="#078a68" stroke-width="1.5" stroke-opacity=".8"/>
<g class="fu" style="--d:.15s"><g fill="#078a68"><g transform="translate(312.0 48.0) scale(0.01100 -0.01100)"><use href="#d0" x="0"/><use href="#d1" x="709"/></g></g><g fill="#6b737d"><g transform="translate(334.0 48.0) scale(0.01100 -0.01100)"><use href="#c2" x="0"/><use href="#c3" x="1418"/><use href="#c4" x="2127"/><use href="#c5" x="3545"/><use href="#c6" x="4964"/><use href="#c7" x="5673"/><use href="#c8" x="6382"/><use href="#c9" x="7091"/><use href="#c10" x="7800"/><use href="#c11" x="8509"/><use href="#c7" x="9218"/><use href="#c6" x="9927"/><use href="#c12" x="11345"/><use href="#c13" x="12055"/><use href="#c14" x="12764"/><use href="#c7" x="13473"/><use href="#c15" x="14182"/><use href="#c12" x="14891"/><use href="#c14" x="15600"/><use href="#c16" x="16309"/><use href="#c7" x="17018"/><use href="#c17" x="17727"/></g></g></g>
<g class="fu" style="--d:.3s"><g fill="#0c0e12"><g transform="translate(310.0 102.0) scale(0.04600 -0.04600)"><use href="#g18" x="0"/><use href="#g19" x="483"/><use href="#g20" x="897"/><use href="#g21" x="1506"/><use href="#g22" x="1956"/><use href="#g23" x="2244"/><use href="#g19" x="2484"/><use href="#g24" x="2898"/></g></g></g>
<g class="fu" style="--d:0.45s"><g fill="#434a54"><g transform="translate(312.0 138.0) scale(0.00708 -0.00708)"><use href="#a25" x="0"/><use href="#a26" x="1314"/><use href="#a27" x="2508"/><use href="#a28" x="3004"/><use href="#a29" x="3704"/><use href="#a30" x="4646"/><use href="#a31" x="5857"/><use href="#a32" x="7085"/><use href="#a33" x="8166"/><use href="#a26" x="8816"/><use href="#a34" x="10010"/><use href="#a35" x="11264"/><use href="#a36" x="12430"/><use href="#a31" x="13600"/><use href="#a34" x="14828"/><use href="#a26" x="16082"/><use href="#a29" x="17276"/><use href="#a28" x="18218"/><use href="#a37" x="18976"/><use href="#a38" x="19472"/><use href="#a32" x="20243"/><use href="#a33" x="21324"/><use href="#a39" x="22570"/><use href="#a31" x="24209"/><use href="#a38" x="25437"/><use href="#a40" x="26240"/><use href="#a28" x="27364"/><use href="#a27" x="28122"/><use href="#a31" x="28618"/><use href="#a39" x="29809"/><use href="#a26" x="32061"/><use href="#a41" x="33255"/><use href="#a42" x="34465"/><use href="#a37" x="35721"/><use href="#a41" x="36217"/><use href="#a26" x="37427"/><use href="#a43" x="38621"/></g></g></g>
<g class="fu" style="--d:0.51s"><g fill="#434a54"><g transform="translate(312.0 160.0) scale(0.00708 -0.00708)"><use href="#a44" x="0"/><use href="#a45" x="1239"/><use href="#a46" x="2652"/><use href="#a47" x="4502"/><use href="#a37" x="6236"/><use href="#a41" x="6732"/><use href="#a48" x="8518"/><use href="#a37" x="10046"/><use href="#a33" x="10542"/><use href="#a35" x="11212"/><use href="#a36" x="12378"/><use href="#a38" x="13548"/><use href="#a31" x="14285"/><use href="#a41" x="15513"/><use href="#a35" x="16723"/><use href="#a39" x="17889"/><use href="#a26" x="19528"/><use href="#a49" x="20722"/><use href="#a30" x="21976"/><use href="#a31" x="23187"/><use href="#a31" x="24415"/><use href="#a40" x="25643"/><use href="#a50" x="27343"/><use href="#a41" x="28493"/><use href="#a34" x="29703"/><use href="#a51" x="31533"/><use href="#a25" x="32851"/><use href="#a25" x="34165"/></g></g></g>
<g class="fu" style="--d:0.57s"><g fill="#434a54"><g transform="translate(312.0 182.0) scale(0.00708 -0.00708)"><use href="#a33" x="0"/><use href="#a38" x="670"/><use href="#a37" x="1461"/><use href="#a42" x="1957"/><use href="#a42" x="3213"/><use href="#a26" x="4469"/><use href="#a38" x="5663"/><use href="#a32" x="6434"/><use href="#a35" x="7515"/><use href="#a52" x="8681"/><use href="#a26" x="9843"/><use href="#a27" x="11037"/><use href="#a26" x="11533"/><use href="#a42" x="12727"/><use href="#a38" x="13983"/><use href="#a50" x="14754"/><use href="#a53" x="15904"/><use href="#a32" x="18274"/><use href="#a33" x="19355"/><use href="#a26" x="20005"/><use href="#a54" x="21199"/><use href="#a32" x="22453"/><use href="#a35" x="23534"/><use href="#a55" x="24700"/><use href="#a50" x="25869"/><use href="#a27" x="27019"/><use href="#a50" x="27515"/><use href="#a27" x="28665"/><use href="#a37" x="29161"/><use href="#a34" x="30233"/><use href="#a50" x="31487"/><use href="#a33" x="32637"/><use href="#a26" x="33287"/><use href="#a32" x="34481"/><use href="#a56" x="35562"/></g></g></g>
<rect x="312" y="235" width="41" height="26" rx="13" fill="#0c0e12" fill-opacity=".05" stroke="#d3d5d0"/>
<polygon points="326.0,242.5 327.5,246.0 331.2,246.3 328.4,248.8 329.2,252.4 326.0,250.5 322.8,252.4 323.6,248.8 320.8,246.3 324.5,246.0" fill="#078a68"/>
<g fill="#078a68"><g transform="translate(336.0 252.0) scale(0.01200 -0.01200)"><use href="#d0" x="0"/></g></g>
<rect x="361.2" y="235" width="67" height="26" rx="13" fill="#0c0e12" fill-opacity=".05" stroke="#d3d5d0"/>
<g fill="#434a54"><g transform="translate(372.2 252.0) scale(0.01200 -0.01200)"><use href="#c57" x="0"/><use href="#c3" x="625"/><use href="#c58" x="1250"/><use href="#c59" x="1875"/><use href="#c58" x="2500"/><use href="#c3" x="3125"/></g></g>
<rect x="435.9" y="235" width="79" height="26" rx="13" fill="#0c0e12" fill-opacity=".05" stroke="#d3d5d0"/>
<circle cx="449.9" cy="248" r="4" fill="#3572A5"/>
<g fill="#434a54"><g transform="translate(459.9 252.0) scale(0.01200 -0.01200)"><use href="#c60" x="0"/><use href="#c61" x="625"/><use href="#c62" x="1250"/><use href="#c63" x="1875"/><use href="#c64" x="2500"/><use href="#c65" x="3125"/></g></g>
</g>
<rect x=".5" y=".5" width="639" height="299" rx="18" fill="none" stroke="#d3d5d0"/>
</svg>