<svg xmlns="http://www.w3.org/2000/svg" width="1280" height="380" viewBox="0 0 1280 380" role="img">
<defs>
<radialGradient id="g" cx="0.85" cy="1.0" r="0.6"><stop offset="0" stop-color="#2ad4a4" stop-opacity="0.16"/><stop offset="1" stop-color="#2ad4a4" stop-opacity="0"/></radialGradient>
<pattern id="dots" width="22" height="22" patternUnits="userSpaceOnUse"><circle cx="1" cy="1" r="1" fill="#0c0e12" fill-opacity="0.07"/></pattern>
<clipPath id="clip"><rect width="1280" height="380" rx="16"/></clipPath>
<path id="c0" d="M66 0V550H145V484H163L149 460Q149 506 174 533Q198 560 240 560Q286 560 311 526Q336 492 336 430L309 484H351L332 460Q332 506 358 533Q383 560 425 560Q477 560 506 521Q534 482 534 418V0H451V419Q451 453 436 472Q422 491 394 491Q367 491 352 472Q336 454 336 420V0H264V419Q264 454 248 472Q233 491 205 491Q177 491 163 472Q149 454 149 420V0Z"/><path id="c1" d="M111 0V550H199V445H220L191 380Q191 469 230 514Q268 560 344 560Q431 560 482 506Q534 451 534 358V325H444V350Q444 415 412 450Q381 484 323 484Q266 484 234 449Q201 414 201 350V0Z"/><path id="c2" d="M90 0V90L398 468H98V550H499V460L185 82H510V0Z"/><path id="c3" d="M325 -180Q240 -180 177 -144Q114 -109 80 -44Q45 22 45 110V450Q45 540 78 605Q110 670 170 705Q231 740 315 740Q391 740 446 710Q501 681 530 626Q560 571 560 495V65H489V120H461L480 140Q480 102 451 78Q422 55 374 55Q309 55 274 94Q240 134 240 210V330Q240 406 274 446Q309 485 374 485Q422 485 451 462Q480 438 480 399L466 420H490L480 490V495Q480 552 461 591Q442 630 406 650Q369 670 315 670Q225 670 175 612Q125 554 125 450V110Q125 10 178 -48Q232 -105 325 -105H395V-180ZM400 118Q441 118 460 143Q480 168 480 220V331Q480 378 460 400Q441 422 400 422Q360 422 340 400Q320 377 320 330V210Q320 163 340 140Q360 118 400 118Z"/><path id="c4" d="M300 -8Q234 -8 186 17Q138 42 112 90Q85 137 85 202V348Q85 414 112 461Q138 508 186 533Q234 558 300 558Q366 558 414 533Q462 508 488 461Q515 414 515 349V202Q515 137 488 90Q462 42 414 17Q366 -8 300 -8ZM300 72Q359 72 392 105Q425 138 425 202V348Q425 412 392 445Q359 478 300 478Q242 478 208 445Q175 412 175 348V202Q175 138 208 105Q242 72 300 72Z"/><path id="c5" d="M360 0Q289 0 250 38Q210 76 210 145V468H55V550H210V705H300V550H520V468H300V145Q300 82 360 82H510V0Z"/><path id="c6" d="M300 410Q263 410 240 430Q217 451 217 485Q217 519 240 540Q263 560 300 560Q338 560 360 540Q383 519 383 485Q383 451 360 430Q338 410 300 410ZM300 -10Q263 -10 240 10Q217 31 217 65Q217 99 240 120Q263 140 300 140Q338 140 360 120Q383 99 383 65Q383 31 360 10Q338 -10 300 -10Z"/><path id="c7" d="M65 255V325Q65 384 101 420Q137 455 195 455Q232 455 258 442Q284 429 302 410Q321 390 336 370Q351 351 367 338Q383 325 403 325Q426 325 438 339Q450 353 450 380V450H535V380Q535 322 500 286Q464 250 405 250Q368 250 342 263Q316 276 298 296Q279 315 264 334Q249 354 233 367Q217 380 197 380Q175 380 162 366Q150 352 150 325V255Z"/><path id="c8" d="M85 0V82H280V468H110V550H370V82H555V0ZM315 649Q282 649 263 666Q244 683 244 712Q244 742 263 760Q282 777 315 777Q348 777 367 760Q386 742 386 712Q386 683 367 666Q348 649 315 649Z"/><path id="c9" d="M92 0V550H182V445H201L182 424Q182 489 221 524Q260 560 329 560Q412 560 461 509Q510 458 510 370V0H420V360Q420 419 388 450Q357 482 303 482Q247 482 214 448Q182 414 182 350V0Z"/><path id="c10" d="M300 -10Q235 -10 186 16Q138 42 112 90Q85 137 85 200V350Q85 414 112 461Q138 508 186 534Q235 560 300 560Q365 560 414 534Q462 508 488 461Q515 414 515 350V253H173V200Q173 135 206 100Q239 66 300 66Q352 66 384 84Q416 103 423 140H513Q504 71 446 30Q387 -10 300 -10ZM427 313V350Q427 415 394 450Q362 485 300 485Q239 485 206 450Q173 415 173 350V321H434Z"/><path id="c11" d="M252 -10Q165 -10 115 34Q65 79 65 155Q65 232 115 276Q165 320 250 320H420V375Q420 426 390 454Q359 481 303 481Q254 481 221 460Q188 440 183 405H93Q102 476 160 518Q218 560 305 560Q400 560 455 511Q510 462 510 378V0H422V105H407L422 120Q422 60 376 25Q329 -10 252 -10ZM274 61Q338 61 379 93Q420 125 420 175V253H252Q207 253 181 228Q155 203 155 160Q155 114 186 88Q218 61 274 61Z"/><path id="c12" d="M304 -10Q238 -10 188 15Q139 40 112 88Q85 135 85 200V350Q85 416 112 463Q139 510 188 535Q238 560 304 560Q399 560 457 509Q515 458 518 370H428Q425 423 392 452Q360 480 304 480Q245 480 210 446Q175 413 175 351V200Q175 138 210 104Q245 70 304 70Q360 70 392 99Q425 128 428 180H518Q515 92 457 41Q399 -10 304 -10Z"/><path id="c13" d="M239 0 55 550H147L269 180Q280 147 289 116Q298 86 302 69Q307 86 316 116Q325 147 335 180L454 550H545L361 0Z"/><path id="c14" d="M283 -8Q227 -8 186 10Q144 27 120 59Q95 91 90 135H180Q186 106 212 89Q239 72 283 72H325Q378 72 404 94Q430 115 430 151Q430 186 406 206Q383 227 337 234L263 246Q182 260 142 296Q103 333 103 403Q103 477 150 518Q197 558 291 558H329Q408 558 456 521Q504 484 514 421H424Q418 447 394 462Q370 478 329 478H291Q240 478 216 459Q193 440 193 402Q193 368 213 352Q233 336 276 329L350 317Q439 303 480 265Q520 227 520 155Q520 79 472 36Q423 -8 325 -8Z"/><path id="c15" d="M300 -10Q262 -10 240 12Q217 34 217 71Q217 110 240 133Q262 156 300 156Q338 156 360 133Q383 110 383 71Q383 34 360 12Q338 -10 300 -10Z"/><path id="c16" d="M161 -180V-98H336Q378 -98 398 -79Q417 -60 417 -20V50L419 150H401L418 165Q418 105 378 70Q338 35 271 35Q186 35 137 90Q88 146 88 240V356Q88 450 137 505Q186 560 271 560Q338 560 378 525Q418 490 418 430L401 445H418V550H507V-20Q507 -94 462 -137Q416 -180 335 -180ZM298 113Q354 113 386 148Q418 183 418 245V350Q418 412 386 447Q354 482 298 482Q241 482 210 448Q178 414 178 350V245Q178 181 210 147Q241 113 298 113Z"/><path id="c17" d="M92 0V730H182V550V445H201L182 424Q182 489 221 524Q260 560 329 560Q412 560 461 509Q510 458 510 370V0H420V360Q420 419 388 452Q357 484 303 484Q247 484 214 449Q182 414 182 350V0Z"/><path id="c18" d="M299 -10Q204 -10 147 46Q90 103 90 200V550H180V200Q180 138 212 104Q244 69 299 69Q355 69 388 104Q420 138 420 200V550H510V200Q510 103 452 46Q394 -10 299 -10Z"/><path id="c19" d="M332 -10Q264 -10 223 26Q182 63 182 126L200 105H182V0H92V730H182V570L180 445H200L182 424Q182 486 224 523Q265 560 332 560Q415 560 465 505Q515 450 515 355V194Q515 100 465 45Q415 -10 332 -10ZM302 68Q359 68 392 102Q425 136 425 200V350Q425 414 392 448Q359 482 302 482Q247 482 214 447Q182 412 182 350V200Q182 138 214 103Q247 68 302 68Z"/><path id="c20" d="M75 -110 430 830H525L170 -110Z"/><path id="c21" d="M83 0 120 200H35V265H132L168 465H70V530H180L217 730H287L250 530H410L447 730H517L480 530H565V465H468L432 265H530V200H420L383 0H313L350 200H190L153 0ZM202 265H362L398 465H238Z"/><path id="c22" d="M375 0Q327 0 291 19Q255 38 235 73Q215 108 215 155V648H30V730H305V155Q305 121 324 102Q343 82 375 82H550V0Z"/><path id="d23" d="M54 255V332Q54 393 93 430Q132 466 195 466Q235 466 262 452Q289 439 308 419Q326 399 340 379Q355 359 370 346Q385 332 405 332Q425 332 436 344Q446 356 446 378V450H546V373Q546 313 508 276Q469 239 405 239Q365 239 338 252Q311 266 292 286Q274 306 260 326Q245 346 230 360Q215 373 195 373Q175 373 164 362Q154 350 154 327V255Z"/><path id="d24" d="M270 -140V-9Q173 -1 118 54Q62 108 61 194H177Q177 155 202 128Q226 102 270 95V319L250 324Q167 347 122 404Q77 460 77 538Q77 622 129 676Q181 730 270 738V870H332V739Q422 731 475 678Q528 625 529 541H412Q412 579 392 604Q371 628 332 635V422L367 412Q450 390 494 334Q539 278 539 197Q539 111 483 56Q427 0 332 -9V-140ZM332 94Q375 101 399 126Q423 152 423 193Q423 236 394 266Q365 296 313 302L332 331ZM270 388V635Q233 628 213 605Q193 582 193 546Q193 499 224 468Q255 437 311 433Z"/><path id="c25" d="M123 0 35 550H115L170 160Q173 138 176 112Q180 87 182 70Q184 87 188 112Q193 138 196 160L257 550H343L404 160Q407 138 412 112Q416 87 418 70Q420 87 424 112Q429 138 432 160L489 550H565L473 0H374L315 380Q311 408 306 436Q301 464 299 480Q297 464 293 436Q289 408 284 380L222 0Z"/><path id="c26" d="M76 0V730H194L270 494Q281 462 290 430Q299 399 303 382Q308 399 316 430Q324 462 334 495L406 730H524V0H436V265Q436 309 439 365Q442 421 447 480Q452 538 458 592Q463 645 467 685L349 320H254L135 685Q140 646 145 594Q150 543 154 486Q158 428 161 371Q164 314 164 265V0Z"/><path id="c27" d="M268 -10Q186 -10 136 45Q85 100 85 194V355Q85 450 135 505Q185 560 268 560Q336 560 377 523Q418 486 418 424L400 445H420L418 570V730H508V0H418V105H400L418 126Q418 63 377 26Q336 -10 268 -10ZM298 68Q354 68 386 103Q418 138 418 200V350Q418 412 386 447Q354 482 298 482Q241 482 208 448Q175 414 175 350V200Q175 136 208 102Q241 68 298 68Z"/><path id="c28" d="M85 0V90L414 648H90V730H505V640L176 82H515V0Z"/><path id="c29" d="M485 -120Q343 -85 264 18Q185 121 185 270V450Q185 548 222 628Q258 707 326 762Q393 817 485 840V755Q421 740 374 698Q327 655 301 592Q275 529 275 450V270Q275 193 300 130Q326 67 374 26Q421 -16 485 -31Z"/><path id="c30" d="M140 290V370H460V290Z"/><path id="c31" d="M92 0V730H318Q383 730 432 704Q481 677 508 630Q535 583 535 520Q535 446 496 393Q458 340 392 320L545 0H439L299 310H182V0ZM182 391H318Q374 391 408 426Q442 462 442 520Q442 579 408 614Q374 649 318 649H182Z"/><path id="c32" d="M115 -120V-31Q180 -16 227 26Q274 67 300 130Q325 193 325 270V450Q325 529 299 592Q273 655 226 698Q179 740 115 755V840Q208 817 275 762Q342 707 378 628Q415 548 415 450V270Q415 121 336 18Q257 -85 115 -120Z"/><path id="c33" d="M300 260Q262 260 240 282Q217 304 217 341Q217 380 240 403Q262 426 300 426Q338 426 360 403Q383 380 383 341Q383 304 360 282Q338 260 300 260Z"/><path id="c34" d="M92 0V730H327Q395 730 445 704Q495 677 522 629Q550 581 550 515Q550 450 522 402Q495 353 445 326Q395 300 327 300H182V0ZM182 381H327Q386 381 422 418Q457 454 457 515Q457 577 422 613Q386 649 327 649H182Z"/><path id="c35" d="M178 -180 259 34 55 550H155L283 210Q290 193 296 170Q302 146 306 130Q310 146 316 170Q322 193 328 210L448 550H545L274 -180Z"/><path id="c36" d="M230 -10Q148 -10 102 34Q55 78 55 155V280Q55 333 82 370Q110 406 161 421L154 431Q123 473 109 509Q95 545 95 581Q95 629 118 665Q140 701 180 720Q221 740 275 740Q333 740 376 719Q418 698 441 660Q464 622 464 569H374Q374 598 362 619Q350 640 328 651Q306 662 275 662Q248 662 228 652Q207 642 196 624Q185 605 185 579Q185 554 196 525Q206 496 225 470L397 233L468 360H562L449 161L566 0H467L404 87Q330 -10 230 -10ZM235 70Q269 70 300 92Q332 115 354 155L207 358Q176 353 160 333Q145 313 145 280V155Q145 115 168 92Q192 70 235 70Z"/><path id="c37" d="M255 0V649H55V731H545V649H345V0Z"/><path id="c38" d="M92 -180V550H182V445H200L182 424Q182 487 224 524Q265 560 333 560Q416 560 466 506Q515 451 515 356V195Q515 132 492 86Q470 40 430 15Q389 -10 333 -10Q266 -10 224 27Q182 64 182 126L200 105H180L182 -20V-180ZM303 68Q360 68 392 102Q425 136 425 200V350Q425 414 392 448Q360 482 303 482Q248 482 215 447Q182 412 182 350V200Q182 138 215 103Q248 68 303 68Z"/><path id="c39" d="M304 -10Q232 -10 180 14Q129 38 101 83Q73 128 72 190H162Q162 135 200 103Q237 71 304 71Q367 71 402 102Q438 133 438 188Q438 232 414 265Q391 298 347 311L248 342Q173 365 132 419Q92 473 92 546Q92 605 118 648Q145 692 193 716Q241 741 306 741Q402 741 460 688Q518 634 519 545H429Q429 599 396 630Q364 660 305 660Q247 660 214 632Q182 604 182 554Q182 509 206 476Q230 443 275 429L375 397Q448 374 488 319Q528 264 528 190Q528 130 500 85Q472 40 422 15Q371 -10 304 -10Z"/><path id="c40" d="M165 -160 245 151H375L245 -160Z"/><path id="c41" d="M105 0V82H254V648H105V730H495V648H346V82H495V0Z"/><path id="c42" d="M220 0V413H60V495H220V590Q220 655 261 692Q302 730 374 730H535V648H374Q343 648 326 634Q310 619 310 590V495H535V413H310V0Z"/><path id="c43" d="M95 0V730H185V323H291L451 550H554L369 288L557 0H452L292 245H185V0Z"/><path id="c44" d=""/><path id="c45" d="M45 290V370H460V290ZM-460 290V370H-45V290Z"/><path id="c46" d="M300 -10Q233 -10 184 16Q134 43 107 92Q80 140 80 205V525Q80 591 107 639Q134 687 184 714Q233 740 300 740Q368 740 417 714Q466 687 493 639Q520 591 520 525V205Q520 140 493 92Q466 43 416 16Q367 -10 300 -10ZM300 67Q360 67 396 106Q433 144 433 205V525Q433 586 396 624Q360 663 300 663Q240 663 204 624Q167 586 167 525V205Q167 144 204 106Q240 67 300 67ZM300 306Q273 306 256 323Q240 340 240 368Q240 395 256 412Q273 428 300 428Q327 428 344 412Q360 395 360 368Q360 340 344 323Q327 306 300 306Z"/><path id="c47" d="M90 0V82H288V655L90 507V607L255 730H378V82H540V0Z"/><path id="c48" d="M275 -140V-9Q181 -1 128 52Q74 104 72 190H162Q162 141 192 110Q221 79 275 72V334L248 342Q173 365 132 419Q92 473 92 546Q92 626 142 678Q191 730 275 738V870H335V739Q418 731 468 679Q518 627 519 545H429Q429 592 404 622Q380 651 335 658V410L375 397Q448 374 488 319Q528 264 528 190Q528 108 476 54Q423 0 335 -9V-140ZM335 72Q384 80 411 110Q438 140 438 188Q438 232 414 265Q391 298 347 311L335 315ZM275 389V658Q231 651 206 624Q182 597 182 554Q182 502 214 466Q246 431 306 422Z"/><path id="c49" d="M50 0 240 730H361L550 0H459L411 194H190L142 0ZM208 270H392L336 495Q320 559 311 602Q302 645 300 658Q298 645 289 602Q280 559 264 496Z"/><path id="c50" d="M115 0V730H205V82H535V0Z"/><path id="e51" d="M675 364Q675 304 636 263Q596 222 516 201Q437 180 316 180Q265 180 212 186Q160 193 99 207V26Q149 14 205 8Q261 1 331 1Q439 1 522 19Q606 37 670 75Q733 113 780 172Q817 114 853 76Q889 38 938 19Q988 0 1067 0H1109V182H1067Q1024 182 990 204Q957 225 922 283Q888 341 842 449L615 983L459 910L636 509Q652 473 664 432Q675 390 675 364Z"/><path id="e52" d="M-22 182V0H58V182ZM339 -159 200 -298 339 -439 479 -298ZM7 -159 -132 -298 7 -439 147 -298ZM356 591Q360 548 362 505Q365 462 365 414Q365 296 310 239Q256 182 129 182H33V0H129Q225 0 313 37Q401 74 455 153Q482 104 520 70Q558 36 612 18Q666 0 740 0H763V182H742Q678 182 634 204Q591 226 567 270Q543 313 539 377L523 611Z"/><path id="e53" d="M335 457Q335 537 389 585Q443 633 529 633Q578 633 618 612Q659 592 684 552Q708 513 708 455Q708 411 688 372Q668 334 628 302Q589 270 528 245Q465 269 422 304Q379 338 357 378Q335 418 335 457ZM535 812Q627 769 716 723Q806 677 884 630Q963 582 1023 536Q1083 489 1118 446Q1152 402 1152 364Q1152 268 1088 222Q1025 177 904 177Q864 177 812 182Q760 186 716 191Q763 229 796 270Q828 312 845 362Q862 412 862 474Q862 559 814 630Q766 702 688 746Q609 790 519 790Q423 790 342 750Q261 709 212 634Q163 559 163 455Q163 408 176 362Q190 316 218 274Q247 232 293 195Q233 188 182 185Q132 182 66 182H-20V0H79Q188 0 305 24Q422 49 509 81Q557 65 627 48Q697 32 775 21Q853 10 922 10Q1106 10 1216 100Q1325 190 1325 367Q1325 439 1281 508Q1237 576 1149 647Q1061 718 928 795Q794 872 614 960Z"/><path id="e54" d="M-21 182V0H27V182ZM185 -153 40 -298 185 -443 330 -298ZM163 0Q289 0 364 54Q439 107 472 201Q505 295 505 415Q505 485 495 562Q485 639 468 719L294 675Q308 600 320 526Q332 452 332 387Q332 298 296 240Q261 182 161 182H0V0Z"/><path id="e55" d="M950 298Q950 237 916 200Q883 164 816 164Q792 164 752 176Q711 189 655 212Q599 235 526 267Q542 320 562 369Q583 418 610 456Q636 495 672 518Q707 540 754 540Q812 540 856 508Q900 476 925 422Q950 367 950 298ZM356 299Q265 282 213 228Q161 175 136 94Q112 12 106 -89Q99 -190 99 -302Q99 -384 102 -464Q105 -545 110 -637H282Q278 -571 274 -519Q271 -467 270 -414Q268 -360 268 -292Q268 -177 273 -100Q278 -22 292 24Q306 69 332 89Q358 109 400 109Q431 109 477 90Q523 71 578 46Q634 22 694 3Q755 -16 814 -16Q918 -16 986 25Q1053 66 1086 136Q1119 207 1119 297Q1119 420 1070 514Q1022 609 939 663Q856 717 750 717Q672 717 611 688Q550 660 503 606Q456 551 420 474Q384 397 356 299Z"/><path id="e56" d="M153 1377V422Q153 203 246 102Q340 0 531 0H556V182H531Q426 182 374 231Q322 280 322 421V1377Z"/><path id="e57" d="M-20 182V0H131V182ZM267 0Q393 0 468 54Q543 107 576 201Q609 295 609 415Q609 485 599 562Q589 639 572 719L398 675Q412 600 424 526Q436 452 436 387Q436 298 400 240Q365 182 265 182H104V0ZM239 -379 104 -514 239 -649 374 -514ZM410 -126 275 -261 410 -396 545 -261ZM68 -126 -67 -261 68 -396 203 -261Z"/><path id="e58" d="M322 1377H153V1H322Z"/><path id="e59" d="M784 0H811V182H773Q700 182 652 217Q604 252 582 336L528 545L362 489Q395 392 414 298Q432 205 432 120Q432 -1 388 -101Q345 -201 248 -272Q151 -344 -12 -379L47 -537Q236 -500 351 -409Q466 -318 524 -196Q581 -73 596 58Q622 37 668 18Q715 0 784 0Z"/><path id="e60" d="M82 1211 842 1519V1629L82 1321ZM220 970 849 1225V1402L130 1110Q82 1091 60 1055Q37 1019 37 978Q37 942 54 907Q71 872 103 846Q162 799 228 752Q295 704 358 656Q421 608 472 558Q524 509 554 458Q585 407 585 354Q585 286 548 248Q512 211 432 196Q353 182 223 182H-20V0H224Q371 0 464 20Q556 41 614 81Q671 121 711 180Q772 86 850 43Q927 0 1038 0H1066V182H1038Q967 182 918 208Q869 234 832 288Q796 343 760 429Q730 501 688 562Q645 624 592 678Q540 731 480 780Q419 828 354 875Q288 922 220 970Z"/><path id="e61" d="M268 438Q268 365 252 307Q235 249 192 216Q148 182 64 182H-20V0H66Q155 0 206 18Q258 35 292 69Q325 103 358 152Q384 103 422 69Q459 35 512 18Q566 0 641 0H671V182H639Q562 182 518 214Q474 247 456 304Q437 362 437 435V1377H268Z"/><path id="e62" d="M-20 182V0H97V182ZM470 1174 331 1035 470 894 610 1035ZM138 1174 -1 1035 138 894 278 1035ZM237 0Q363 0 438 54Q513 107 546 201Q579 295 579 415Q579 485 569 562Q559 639 542 719L368 675Q382 600 394 526Q406 452 406 387Q406 298 370 240Q335 182 235 182H74V0Z"/><path id="e63" d="M47 -538Q238 -501 360 -402Q483 -302 542 -160Q600 -17 600 150Q600 245 582 345Q563 445 528 545L362 489Q395 392 414 298Q432 205 432 120Q432 -1 388 -101Q345 -201 248 -272Q151 -344 -12 -379Z"/><path id="e64" d="M326 180Q277 180 220 187Q164 194 99 207V26Q153 14 214 8Q276 2 341 2Q529 2 648 44Q767 87 824 172Q881 257 881 382Q881 461 850 536Q819 612 756 685Q694 758 598 827Q503 896 375 962L296 804Q444 723 535 650Q626 576 668 509Q710 442 710 379Q710 313 668 269Q626 225 541 202Q456 180 326 180Z"/><path id="e65" d="M689 -505Q848 -505 970 -470Q1093 -434 1176 -373Q1260 -312 1303 -235Q1346 -158 1346 -74Q1346 3 1324 62Q1303 122 1251 156Q1199 190 1107 190H939Q881 190 862 212Q843 233 843 280Q843 365 875 434Q907 504 968 545Q1028 586 1113 586Q1158 586 1199 576Q1240 567 1281 546L1338 698Q1280 737 1222 751Q1165 765 1113 765Q1010 765 928 727Q846 689 788 622Q730 554 699 466Q668 379 668 280Q668 217 682 167Q696 117 727 82Q758 47 810 28Q861 10 935 10H1097Q1147 10 1166 -18Q1185 -46 1185 -78Q1185 -125 1148 -170Q1110 -214 1043 -249Q976 -284 886 -304Q795 -325 689 -325Q530 -325 439 -272Q348 -219 310 -130Q271 -41 271 67Q271 158 291 255Q311 352 340 444L181 508Q143 402 121 290Q99 179 99 73Q99 -84 156 -216Q214 -347 344 -426Q473 -505 689 -505Z"/><path id="e66" d="M220 970 849 1225V1402L130 1110Q82 1091 60 1055Q37 1019 37 978Q37 942 54 907Q71 872 103 846Q162 799 228 752Q295 704 358 656Q421 608 472 558Q524 509 554 458Q585 407 585 354Q585 286 548 248Q512 211 432 196Q353 182 223 182H-20V0H224Q371 0 464 20Q556 41 614 81Q671 121 711 180Q772 86 850 43Q927 0 1038 0H1066V182H1038Q967 182 918 208Q869 234 832 288Q796 343 760 429Q730 501 688 562Q645 624 592 678Q540 731 480 780Q419 828 354 875Q288 922 220 970Z"/><path id="e67" d="M24 0Q97 0 146 18Q195 35 235 69Q275 103 318 152Q379 94 436 55Q493 16 552 -4Q611 -23 678 -23Q777 -23 839 14Q901 50 943 111Q981 53 1042 26Q1103 0 1167 0H1194V182H1168Q1125 182 1089 205Q1053 228 1027 274Q1001 319 987 384Q967 479 922 554Q877 629 804 673Q731 717 626 717Q534 717 472 678Q409 640 365 579Q321 518 286 450Q250 381 214 320Q178 259 132 220Q86 182 19 182H-20V0ZM630 540Q721 540 772 474Q824 407 824 303Q824 230 788 192Q751 154 676 154Q648 154 612 166Q577 178 536 203Q505 222 472 249Q439 276 406 310Q432 367 465 420Q498 473 539 506Q580 540 630 540Z"/><path id="e68" d="M145 133Q145 76 184 38Q223 0 278 0Q333 0 372 39Q411 78 411 133Q411 188 372 228Q333 267 278 267Q223 267 184 228Q145 188 145 133ZM434 977 368 1029Q300 976 248 911Q195 846 166 770Q137 693 137 602Q137 528 172 484Q206 440 285 440Q347 440 378 476Q409 511 409 572Q409 634 382 665Q354 696 283 696Q283 787 324 850Q364 913 434 977Z"/><path id="e69" d="M-22 182V0H58V182ZM339 -159 200 -298 339 -439 479 -298ZM7 -159 -132 -298 7 -439 147 -298ZM197 0Q323 0 398 54Q473 107 506 201Q539 295 539 415Q539 485 529 562Q519 639 502 719L328 675Q342 600 354 526Q366 452 366 387Q366 298 330 240Q295 182 195 182H34V0Z"/><path id="e70" d="M630 540Q721 540 772 474Q824 407 824 303Q824 230 788 192Q751 154 676 154Q647 154 610 167Q572 180 530 207Q500 226 469 252Q438 277 406 310Q432 367 465 420Q498 473 539 506Q580 540 630 540ZM678 -23Q778 -23 848 18Q919 58 956 134Q993 211 993 319Q993 430 948 520Q902 610 820 664Q737 717 626 717Q534 717 472 678Q409 640 365 579Q321 518 286 450Q250 381 214 320Q178 259 132 220Q86 182 19 182H-20V0H24Q97 0 146 18Q195 35 235 69Q275 103 318 152Q379 94 436 55Q493 16 552 -4Q611 -23 678 -23Z"/><path id="e71" d="M337 1502 208 1561Q176 1576 148 1585Q121 1594 94 1594Q53 1594 8 1566Q-38 1539 -103 1472L-161 1412L-70 1330L-13 1387Q34 1434 62 1452Q90 1470 112 1470Q123 1470 135 1466Q147 1462 161 1456L290 1397Q342 1374 380 1374Q420 1374 460 1398Q499 1421 552 1471L608 1524L517 1606L466 1560Q428 1526 406 1510Q384 1495 366 1495Q351 1495 337 1502ZM322 1247H153V1H322Z"/><path id="e72" d="M1696 1315 1561 1180 1696 1045 1831 1180ZM1867 1062 1732 927 1867 792 2002 927ZM1525 1062 1390 927 1525 792 1660 927ZM1482 0Q1562 0 1630 36Q1699 72 1755 153Q1792 80 1851 40Q1910 0 2006 0Q2124 1 2192 60Q2261 118 2291 213Q2321 308 2321 416Q2321 491 2310 566Q2299 642 2281 709L2110 663Q2118 632 2127 586Q2136 541 2143 490Q2150 439 2150 389Q2150 334 2136 286Q2123 239 2092 210Q2060 182 2005 182Q1920 182 1882 238Q1844 295 1839 376L1823 585L1656 564Q1660 522 1662 492Q1664 463 1665 442Q1666 421 1666 403Q1666 296 1628 239Q1590 182 1484 182Q1391 182 1335 226Q1279 270 1251 357L1191 546L1020 477Q1048 403 1080 287Q1112 171 1112 52Q1112 -49 1076 -138Q1039 -226 948 -280Q856 -335 689 -335Q530 -335 439 -282Q348 -229 310 -140Q271 -51 271 57Q271 148 291 245Q311 342 340 434L181 498Q143 392 121 280Q99 169 99 63Q99 -94 156 -226Q214 -357 344 -436Q473 -515 689 -515Q897 -515 1028 -442Q1160 -369 1223 -240Q1286 -110 1287 57Q1319 33 1367 16Q1415 0 1482 0Z"/><path id="e73" d="M436 731Q356 731 294 693Q231 655 188 592Q144 530 122 456Q99 381 99 307Q99 153 194 76Q288 0 478 0H636Q612 -98 546 -172Q479 -246 370 -297Q262 -348 111 -377L170 -536Q383 -495 512 -412Q641 -330 706 -222Q772 -115 794 0H931V182H810Q808 317 779 420Q750 522 699 592Q648 661 581 696Q514 731 436 731ZM468 182Q362 182 314 212Q267 243 267 313Q267 358 282 414Q296 469 332 510Q369 551 433 551Q481 551 518 530Q555 508 581 463Q607 418 623 348Q639 278 645 182Z"/><path id="e74" d="M603 1270 458 1125 603 980 748 1125ZM-20 182V0H147Q288 0 402 24Q515 49 624 96Q734 144 862 212Q968 268 1047 304Q1126 340 1184 358Q1242 377 1284 382V555Q1204 558 1116 584Q1028 611 940 650Q852 688 770 726Q688 763 619 788Q550 813 500 813Q382 813 294 748Q207 684 141 577L126 553L279 478L306 512Q345 562 392 598Q438 633 499 633Q520 633 571 616Q622 598 690 571Q759 544 835 514Q911 483 982 457Q855 399 752 348Q650 298 556 261Q463 224 365 203Q267 182 150 182Z"/><path id="e75" d="M434 537 368 589Q300 536 248 471Q195 406 166 330Q137 253 137 162Q137 88 172 44Q206 0 285 0Q347 0 378 36Q409 71 409 132Q409 194 382 225Q354 256 283 256Q283 347 324 410Q364 473 434 537Z"/><path id="e76" d="M582 207Q582 207 572 268Q562 330 540 439Q517 548 480 691Q443 834 390 998Q336 1162 264 1332L109 1260Q182 1095 235 937Q288 779 324 642Q360 504 381 399Q402 294 412 235Q421 176 421 176Q401 172 370 172Q340 171 299 171Q256 171 213 174Q170 176 108 180V8Q152 4 195 2Q238 0 279 0Q423 0 544 26Q665 53 756 108Q848 162 904 244Q926 167 964 112Q1003 58 1064 29Q1126 0 1215 0H1254V182H1218Q1142 182 1097 226Q1052 270 1032 357Q1012 444 1012 571V1377H843V624Q843 482 809 398Q775 315 716 272Q657 228 582 207Z"/><path id="e77" d="M677 0Q757 0 826 36Q894 72 950 153Q987 80 1046 40Q1105 0 1201 0Q1319 1 1388 60Q1456 118 1486 213Q1516 308 1516 416Q1516 491 1505 566Q1494 642 1476 709L1305 663Q1313 632 1322 586Q1331 541 1338 490Q1345 439 1345 389Q1345 334 1332 286Q1318 239 1286 210Q1255 182 1200 182Q1115 182 1077 238Q1039 295 1034 376L1018 585L851 564Q855 522 857 492Q859 463 860 442Q861 421 861 403Q861 296 823 239Q785 182 679 182Q590 182 544 237Q499 292 493 376L477 585L310 564Q314 522 316 492Q318 463 319 442Q320 421 320 403Q320 319 294 271Q268 223 214 202Q160 182 74 182H-20V0H72Q207 0 280 40Q353 79 400 153Q437 79 500 40Q562 0 677 0Z"/>
</defs>
<style>
.p{animation:pin 2.4s cubic-bezier(.22,1,.36,1) var(--d) both,tw 3.2s ease-in-out calc(var(--d) + 2.4s) infinite alternate}
@keyframes pin{from{transform:translate(var(--x),var(--y));opacity:0}}
@keyframes tw{to{opacity:.35}}
.fu{animation:fu 1.1s cubic-bezier(.22,1,.36,1) var(--d,0s) both}
@keyframes fu{from{opacity:0;transform:translateY(14px)}}
.h{fill:#03241b}.blink{animation:bl 1.1s steps(1) infinite}@keyframes bl{50%{opacity:0}}
@media (prefers-reduced-motion:reduce){*{animation:none!important}}

</style>
<g clip-path="url(#clip)">
<rect width="1280" height="380" fill="#f5f5f2"/>
<rect width="1280" height="380" fill="url(#dots)"/>
<rect width="1280" height="380" fill="url(#g)"/>
<defs><clipPath id="c0"><rect x="76.0" y="77" height="23" width="0"><animate attributeName="width" values="0;0.0;9.0;18.0;27.0;36.0;45.0;54.0;54.0;0" keyTimes="0;0.0333;0.0367;0.0400;0.0433;0.0467;0.0500;0.0533;0.97;1" dur="18.0s" repeatCount="indefinite" calcMode="discrete"/></rect></clipPath><clipPath id="c2"><rect x="76.0" y="131" height="23" width="0"><animate attributeName="width" values="0;0.0;9.0;18.0;27.0;36.0;45.0;54.0;63.0;72.0;81.0;90.0;99.0;108.0;117.0;126.0;126.0;0" keyTimes="0;0.1006;0.1039;0.1072;0.1106;0.1139;0.1172;0.1206;0.1239;0.1272;0.1306;0.1339;0.1372;0.1406;0.1439;0.1472;0.97;1" dur="18.0s" repeatCount="indefinite" calcMode="discrete"/></rect></clipPath><clipPath id="c4"><rect x="76.0" y="185" height="23" width="0"><animate attributeName="width" values="0;0.0;9.0;18.0;27.0;36.0;45.0;54.0;63.0;72.0;81.0;90.0;99.0;108.0;117.0;126.0;135.0;144.0;153.0;162.0;171.0;180.0;189.0;189.0;0" keyTimes="0;0.1944;0.1978;0.2011;0.2044;0.2078;0.2111;0.2144;0.2178;0.2211;0.2244;0.2278;0.2311;0.2344;0.2378;0.2411;0.2444;0.2478;0.2511;0.2544;0.2578;0.2611;0.2644;0.97;1" dur="18.0s" repeatCount="indefinite" calcMode="discrete"/></rect></clipPath><clipPath id="c6"><rect x="76.0" y="239" height="23" width="0"><animate attributeName="width" values="0;0.0;9.0;18.0;27.0;36.0;45.0;54.0;63.0;72.0;81.0;90.0;99.0;99.0;0" keyTimes="0;0.3117;0.3150;0.3183;0.3217;0.3250;0.3283;0.3317;0.3350;0.3383;0.3417;0.3450;0.3483;0.97;1" dur="18.0s" repeatCount="indefinite" calcMode="discrete"/></rect></clipPath></defs>
<rect x="0" y="0" width="1280" height="44" fill="#0c0e12" fill-opacity=".03"/>
<rect x="0" y="44" width="1280" height="1" fill="#e2e3df"/>
<circle cx="28" cy="22" r="6" fill="#ff5f57" fill-opacity=".85"/>
<circle cx="48" cy="22" r="6" fill="#febc2e" fill-opacity=".85"/>
<circle cx="68" cy="22" r="6" fill="#28c840" fill-opacity=".85"/>
<g fill="#6b737d"><g transform="translate(589.6 27.0) scale(0.01200 -0.01200)"><use href="#c0" x="0"/><use href="#c1" x="600"/><use href="#c2" x="1200"/><use href="#c3" x="1800"/><use href="#c0" x="2400"/><use href="#c1" x="3000"/><use href="#c2" x="3600"/><use href="#c1" x="4200"/><use href="#c4" x="4800"/><use href="#c4" x="5400"/><use href="#c5" x="6000"/><use href="#c6" x="6600"/><use href="#c7" x="7800"/></g></g>
<g fill="#6b737d"><g transform="translate(955.0 27.0) scale(0.01100 -0.01100)"><use href="#c8" x="0"/><use href="#c9" x="600"/><use href="#c5" x="1200"/><use href="#c10" x="1800"/><use href="#c1" x="2400"/><use href="#c11" x="3000"/><use href="#c12" x="3600"/><use href="#c5" x="4200"/><use href="#c8" x="4800"/><use href="#c13" x="5400"/><use href="#c10" x="6000"/><use href="#c13" x="7200"/><use href="#c10" x="7800"/><use href="#c1" x="8400"/><use href="#c14" x="9000"/><use href="#c8" x="9600"/><use href="#c4" x="10200"/><use href="#c9" x="10800"/><use href="#c6" x="11400"/><use href="#c0" x="12600"/><use href="#c1" x="13200"/><use href="#c2" x="13800"/><use href="#c1" x="14400"/><use href="#c4" x="15000"/><use href="#c4" x="15600"/><use href="#c5" x="16200"/><use href="#c15" x="16800"/><use href="#c16" x="17400"/><use href="#c8" x="18000"/><use href="#c5" x="18600"/><use href="#c17" x="19200"/><use href="#c18" x="19800"/><use href="#c19" x="20400"/><use href="#c15" x="21000"/><use href="#c8" x="21600"/><use href="#c4" x="22200"/><use href="#c20" x="22800"/><use href="#c21" x="23400"/><use href="#c14" x="24000"/><use href="#c17" x="24600"/><use href="#c10" x="25200"/><use href="#c22" x="25800"/><use href="#c22" x="26400"/></g></g>
<g fill="#078a68"><g transform="translate(40.0 92.0) scale(0.01500 -0.01500)"><use href="#d23" x="0"/><use href="#d24" x="1200"/></g></g>
<g clip-path="url(#c0)"><g fill="#0c0e12"><g transform="translate(76.0 92.0) scale(0.01500 -0.01500)"><use href="#c25" x="0"/><use href="#c17" x="600"/><use href="#c4" x="1200"/><use href="#c11" x="1800"/><use href="#c0" x="2400"/><use href="#c8" x="3000"/></g></g></g>
<g opacity="0"><g fill="#434a54"><g transform="translate(40.0 119.0) scale(0.01500 -0.01500)"><use href="#c26" x="0"/><use href="#c4" x="600"/><use href="#c17" x="1200"/><use href="#c11" x="1800"/><use href="#c0" x="2400"/><use href="#c0" x="3000"/><use href="#c11" x="3600"/><use href="#c27" x="4200"/><use href="#c1" x="4800"/><use href="#c10" x="5400"/><use href="#c2" x="6000"/><use href="#c11" x="6600"/><use href="#c28" x="7800"/><use href="#c11" x="8400"/><use href="#c1" x="9000"/><use href="#c10" x="9600"/><use href="#c29" x="10800"/><use href="#c26" x="11400"/><use href="#c30" x="12000"/><use href="#c31" x="12600"/><use href="#c30" x="13200"/><use href="#c28" x="13800"/><use href="#c32" x="14400"/><use href="#c33" x="15600"/><use href="#c34" x="16800"/><use href="#c35" x="17400"/><use href="#c5" x="18000"/><use href="#c17" x="18600"/><use href="#c4" x="19200"/><use href="#c9" x="19800"/><use href="#c36" x="21000"/><use href="#c37" x="22200"/><use href="#c35" x="22800"/><use href="#c38" x="23400"/><use href="#c10" x="24000"/><use href="#c39" x="24600"/><use href="#c12" x="25200"/><use href="#c1" x="25800"/><use href="#c8" x="26400"/><use href="#c38" x="27000"/><use href="#c5" x="27600"/><use href="#c33" x="28800"/><use href="#c26" x="30000"/><use href="#c11" x="30600"/><use href="#c14" x="31200"/><use href="#c17" x="31800"/><use href="#c17" x="32400"/><use href="#c11" x="33000"/><use href="#c27" x="33600"/><use href="#c40" x="34200"/><use href="#c41" x="35400"/><use href="#c1" x="36000"/><use href="#c11" x="36600"/><use href="#c9" x="37200"/></g></g><animate attributeName="opacity" values="0;0;1;1;0" keyTimes="0;0.0728;0.0738;0.97;1" dur="18.0s" repeatCount="indefinite"/></g>
<g fill="#078a68"><g transform="translate(40.0 146.0) scale(0.01500 -0.01500)"><use href="#d23" x="0"/><use href="#d24" x="1200"/></g></g>
<g clip-path="url(#c2)"><g fill="#0c0e12"><g transform="translate(76.0 146.0) scale(0.01500 -0.01500)"><use href="#c22" x="0"/><use href="#c14" x="600"/><use href="#c7" x="1800"/><use href="#c20" x="2400"/><use href="#c42" x="3000"/><use href="#c22" x="3600"/><use href="#c11" x="4200"/><use href="#c16" x="4800"/><use href="#c14" x="5400"/><use href="#c17" x="6000"/><use href="#c8" x="6600"/><use href="#c38" x="7200"/><use href="#c14" x="7800"/></g></g></g>
<g opacity="0"><g fill="#078a68"><g transform="translate(40.0 173.0) scale(0.01500 -0.01500)"><use href="#c0" x="0"/><use href="#c8" x="600"/><use href="#c17" x="1200"/><use href="#c11" x="1800"/><use href="#c9" x="2400"/><use href="#c14" x="3000"/><use href="#c5" x="3600"/><use href="#c11" x="4200"/><use href="#c12" x="4800"/><use href="#c43" x="5400"/><use href="#c27" x="7200"/><use href="#c8" x="7800"/><use href="#c19" x="8400"/><use href="#c14" x="9000"/><use href="#c17" x="10800"/><use href="#c11" x="11400"/><use href="#c0" x="12000"/><use href="#c35" x="12600"/><use href="#c11" x="13200"/><use href="#c27" x="13800"/><use href="#c27" x="15600"/><use href="#c4" x="16200"/><use href="#c43" x="16800"/><use href="#c17" x="17400"/><use href="#c11" x="18000"/><use href="#c9" x="18600"/><use href="#c10" x="19200"/><use href="#c17" x="19800"/><use href="#c38" x="21600"/><use href="#c11" x="22200"/><use href="#c43" x="22800"/><use href="#c9" x="23400"/><use href="#c10" x="24000"/><use href="#c13" x="24600"/><use href="#c8" x="25200"/><use href="#c14" x="25800"/><use href="#c9" x="27600"/><use href="#c10" x="28200"/><use href="#c5" x="28800"/><use href="#c27" x="29400"/><use href="#c4" x="30000"/><use href="#c12" x="30600"/><use href="#c5" x="31200"/><use href="#c4" x="31800"/><use href="#c1" x="32400"/><use href="#c30" x="33000"/><use href="#c8" x="33600"/><use href="#c1" x="34200"/><use href="#c42" x="36000"/><use href="#c22" x="36600"/><use href="#c4" x="37200"/><use href="#c25" x="37800"/><use href="#c38" x="38400"/><use href="#c8" x="39000"/><use href="#c22" x="39600"/><use href="#c4" x="40200"/><use href="#c5" x="40800"/></g></g><animate attributeName="opacity" values="0;0;1;1;0" keyTimes="0;0.1667;0.1677;0.97;1" dur="18.0s" repeatCount="indefinite"/></g>
<g fill="#078a68"><g transform="translate(40.0 200.0) scale(0.01500 -0.01500)"><use href="#d23" x="0"/><use href="#d24" x="1200"/></g></g>
<g clip-path="url(#c4)"><g fill="#0c0e12"><g transform="translate(76.0 200.0) scale(0.01500 -0.01500)"><use href="#c27" x="0"/><use href="#c8" x="600"/><use href="#c19" x="1200"/><use href="#c14" x="1800"/><use href="#c14" x="3000"/><use href="#c5" x="3600"/><use href="#c11" x="4200"/><use href="#c5" x="4800"/><use href="#c18" x="5400"/><use href="#c14" x="6000"/><use href="#c44" x="7200"/><use href="#c45" x="7800"/><use href="#c4" x="8400"/><use href="#c9" x="9000"/><use href="#c10" x="9600"/><use href="#c22" x="10200"/><use href="#c8" x="10800"/><use href="#c9" x="11400"/><use href="#c10" x="12000"/></g></g></g>
<g opacity="0"><g fill="#434a54"><g transform="translate(40.0 227.0) scale(0.01500 -0.01500)"><use href="#c27" x="0"/><use href="#c8" x="600"/><use href="#c19" x="1200"/><use href="#c14" x="1800"/><use href="#c6" x="2400"/><use href="#c46" x="3600"/><use href="#c1" x="4800"/><use href="#c10" x="5400"/><use href="#c13" x="6000"/><use href="#c10" x="6600"/><use href="#c1" x="7200"/><use href="#c5" x="7800"/><use href="#c10" x="8400"/><use href="#c27" x="9000"/><use href="#c33" x="10200"/><use href="#c35" x="11400"/><use href="#c4" x="12000"/><use href="#c18" x="12600"/><use href="#c1" x="13200"/><use href="#c10" x="14400"/><use href="#c27" x="15000"/><use href="#c8" x="15600"/><use href="#c5" x="16200"/><use href="#c14" x="16800"/><use href="#c11" x="18000"/><use href="#c1" x="18600"/><use href="#c10" x="19200"/><use href="#c14" x="20400"/><use href="#c11" x="21000"/><use href="#c42" x="21600"/><use href="#c10" x="22200"/><use href="#c33" x="23400"/><use href="#c47" x="24600"/><use href="#c14" x="25800"/><use href="#c5" x="26400"/><use href="#c11" x="27000"/><use href="#c1" x="27600"/><use href="#c11" x="28800"/><use href="#c12" x="29400"/><use href="#c1" x="30000"/><use href="#c4" x="30600"/><use href="#c14" x="31200"/><use href="#c14" x="31800"/><use href="#c42" x="33000"/><use href="#c22" x="33600"/><use href="#c11" x="34200"/><use href="#c16" x="34800"/><use href="#c14" x="35400"/><use href="#c17" x="36000"/><use href="#c8" x="36600"/><use href="#c38" x="37200"/><use href="#c14" x="37800"/></g></g><animate attributeName="opacity" values="0;0;1;1;0" keyTimes="0;0.2839;0.2849;0.97;1" dur="18.0s" repeatCount="indefinite"/></g>
<g fill="#078a68"><g transform="translate(40.0 254.0) scale(0.01500 -0.01500)"><use href="#d23" x="0"/><use href="#d24" x="1200"/></g></g>
<g clip-path="url(#c6)"><g fill="#0c0e12"><g transform="translate(76.0 254.0) scale(0.01500 -0.01500)"><use href="#c10" x="0"/><use href="#c12" x="600"/><use href="#c17" x="1200"/><use href="#c4" x="1800"/><use href="#c48" x="3000"/><use href="#c39" x="3600"/><use href="#c49" x="4200"/><use href="#c50" x="4800"/><use href="#c49" x="5400"/><use href="#c26" x="6000"/></g></g></g>
<g opacity="0"><g fill="#434a54"><g transform="translate(40.0 281.0) scale(0.00781 -0.00781)"><use href="#e51" x="0"/><use href="#e52" x="1089"/><use href="#e53" x="1832"/><use href="#e51" x="3255"/><use href="#e54" x="4344"/><use href="#e55" x="5498"/><use href="#e56" x="6716"/><use href="#e52" x="7252"/><use href="#e57" x="7995"/><use href="#e55" x="9253"/><use href="#e58" x="10471"/><use href="#e59" x="10806"/><use href="#e60" x="11597"/><use href="#e61" x="12643"/><use href="#e62" x="13294"/><use href="#e63" x="14522"/><use href="#e64" x="15223"/><use href="#e65" x="16753"/><use href="#e63" x="18198"/><use href="#e56" x="18899"/><use href="#e66" x="19435"/><use href="#e67" x="20481"/><use href="#e53" x="21655"/><use href="#e65" x="23628"/><use href="#e58" x="25073"/><use href="#e59" x="25408"/><use href="#e54" x="26199"/><use href="#e68" x="27353"/><use href="#e51" x="27909"/><use href="#e69" x="28998"/><use href="#e51" x="29636"/><use href="#e70" x="30725"/><use href="#e71" x="31817"/><use href="#e72" x="32842"/><use href="#e73" x="35262"/><use href="#e74" x="36173"/><use href="#e75" x="38095"/><use href="#e55" x="38651"/><use href="#e76" x="39869"/><use href="#e77" x="41103"/></g></g><animate attributeName="opacity" values="0;0;1;1;0" keyTimes="0;0.3678;0.3688;0.97;1" dur="18.0s" repeatCount="indefinite"/></g>
<g fill="#078a68"><g transform="translate(40.0 308.0) scale(0.01500 -0.01500)"><use href="#d23" x="0"/><use href="#d24" x="1200"/></g></g>
<rect class="blink" x="78.0" y="295" width="9.0" height="17" fill="#078a68"/>
</g>
<rect x=".5" y=".5" width="1279" height="379" rx="16" fill="none" stroke="#d3d5d0"/>
</svg>